<svg width="52" height="52" viewBox="0 0 52 52" fill="none" xmlns="http://www.w3.org/2000/svg">
<path d="M48.9224 17.6462L34.5141 3.23781C32.8636 1.5873 30.178 1.58749 28.5277 3.23781L10.4479 21.3177H6.23302C3.89893 21.3177 2 23.2167 2 25.5508V45.9273C2 48.2614 3.89893 50.1604 6.23302 50.1604H38.6504C40.9845 50.1604 42.8834 48.2614 42.8834 45.9273V29.6716L48.9224 23.6325C50.5729 21.9821 50.5729 19.2967 48.9224 17.6462ZM30.5232 5.23326C30.7983 4.9582 31.1597 4.82058 31.521 4.82058C31.8823 4.82058 32.2436 4.9582 32.5186 5.23326L39.9429 12.6575L31.2827 21.3177H14.4387L30.5232 5.23326ZM40.0614 45.9273C40.0614 46.7054 39.4284 47.3383 38.6504 47.3383H6.23302C5.45499 47.3383 4.82201 46.7054 4.82201 45.9273V25.5508C4.82201 24.7727 5.45499 24.1398 6.23302 24.1398H38.6504C39.4284 24.1398 40.0614 24.7727 40.0614 25.5508V45.9273ZM39.2246 21.3577C39.0366 21.3321 38.8452 21.3177 38.6504 21.3177H35.2736L41.9383 14.6529L43.9339 16.6484L39.2246 21.3577ZM46.927 21.6372L42.8834 25.6808V25.5508C42.8834 24.4782 42.4817 23.4981 41.8218 22.7514L45.9293 18.6439L46.927 19.6415C47.4772 20.1917 47.4772 21.087 46.927 21.6372Z" fill="#C41429"/>
<path d="M7.64404 40.2449H12.8948V43.067H7.64404V40.2449Z" fill="#C41429"/>
<path d="M15.7589 40.2449H21.0097V43.067H15.7589V40.2449Z" fill="#C41429"/>
<path d="M23.8738 40.2449H29.1246V43.067H23.8738V40.2449Z" fill="#C41429"/>
<path d="M31.9887 40.2449H37.2394V43.067H31.9887V40.2449Z" fill="#C41429"/>
<path d="M17.1699 28.4106H7.64404V36.8766H17.1699V28.4106ZM14.3479 34.0546H10.4661V31.2326H14.3479V34.0546Z" fill="#C41429"/>
</svg>
