<svg width="52" height="52" viewBox="0 0 52 52" fill="none" xmlns="http://www.w3.org/2000/svg">
<path d="M26 5.22314C18.8188 5.22314 13 11.0185 13 18.1971C13 30.6095 26 46.7971 26 46.7971C26 46.7971 39 30.6069 39 18.1971C39 11.0211 33.1812 5.22314 26 5.22314ZM26 25.3757C24.1382 25.3757 22.3526 24.6361 21.0361 23.3196C19.7196 22.0031 18.98 20.2176 18.98 18.3557C18.98 16.4939 19.7196 14.7084 21.0361 13.3919C22.3526 12.0753 24.1382 11.3357 26 11.3357C27.8618 11.3357 29.6474 12.0753 30.9639 13.3919C32.2804 14.7084 33.02 16.4939 33.02 18.3557C33.02 20.2176 32.2804 22.0031 30.9639 23.3196C29.6474 24.6361 27.8618 25.3757 26 25.3757Z" fill="#C41429"/>
</svg>
