<svg width="52" height="52" viewBox="0 0 52 52" fill="none" xmlns="http://www.w3.org/2000/svg">
<path fill-rule="evenodd" clip-rule="evenodd" d="M27.9694 3C16.1654 3 7.11129 12.8182 6.04988 24.485H2L7.78729 30.4891L14.1038 24.485H10.008C11.0205 14.553 18.4106 6.15892 28.1682 6.15892C38.6049 6.15892 47.0993 15.042 47.0993 25.9583C47.0993 36.8746 38.6049 45.7608 28.1682 45.7608C22.9835 45.7608 18.2821 43.5677 14.8624 40.0243L12.3511 42.565C16.5442 46.6339 22.1423 48.9106 27.9694 48.9166C40.4861 48.9166 50.6628 38.6155 50.6628 25.9583C50.6628 13.3011 40.4861 3 27.9694 3Z" fill="#C41429"/>
<path fill-rule="evenodd" clip-rule="evenodd" d="M26.29 12.0553V27.4654H38.403V24.3896H29.2571V12.0553H26.29Z" fill="#C41429"/>
</svg>
