<svg width="24" height="24" viewBox="0 0 24 24" fill="none" xmlns="http://www.w3.org/2000/svg">
<path fill-rule="evenodd" clip-rule="evenodd" d="M11.9497 8.70711L9.12132 5.87868C7.94975 4.70711 6.05025 4.70711 4.87868 5.87868C3.70711 7.05025 3.70711 8.94975 4.87868 10.1213L11.9497 17.1924L19.0208 10.1213C20.1924 8.94975 20.1924 7.05025 19.0208 5.87868C17.8492 4.70711 15.9497 4.70711 14.7782 5.87868L11.9497 8.70711ZM11.9497 20.0208L3.46447 11.5355C1.51184 9.58291 1.51184 6.41709 3.46447 4.46447C5.41709 2.51184 8.58291 2.51184 10.5355 4.46447L11.9497 5.87868L13.364 4.46447C15.3166 2.51185 18.4824 2.51185 20.435 4.46447C22.3876 6.41709 22.3876 9.58291 20.435 11.5355L11.9497 20.0208Z" fill="#010101"/>
</svg>
