<svg width="24" height="24" viewBox="0 0 24 24" fill="none" xmlns="http://www.w3.org/2000/svg">
<path d="M6.24058 20.2392C6.24058 21.1843 5.47449 21.9504 4.52947 21.9504C3.58445 21.9504 2.81836 21.1843 2.81836 20.2392C2.81836 19.2942 3.58445 18.5281 4.52947 18.5281C5.47449 18.5281 6.24058 19.2942 6.24058 20.2392Z" stroke="#010101" stroke-width="2.07778"/>
<path d="M19.0739 20.2392C19.0739 21.1843 18.3078 21.9504 17.3628 21.9504C16.4178 21.9504 15.6517 21.1843 15.6517 20.2392C15.6517 19.2942 16.4178 18.5281 17.3628 18.5281C18.3078 18.5281 19.0739 19.2942 19.0739 20.2392Z" stroke="#010101" stroke-width="2.07778"/>
<path d="M3.56641 6.76062H18.7832V12.9384C18.7832 15.5762 16.3254 17.5261 13.7568 16.9257L5.20117 14.9257C3.34894 14.4926 2.03906 12.8406 2.03906 10.9384V8.28796C2.0392 7.4444 2.72284 6.76076 3.56641 6.76062Z" stroke="#010101" stroke-width="2.07778"/>
<path d="M6.13379 20.2661L15.5449 20.2661" stroke="#010101" stroke-width="2.07778"/>
<path d="M18.7227 7.37408L19.213 2.96134C19.2817 2.34236 19.8049 1.87408 20.4277 1.87408H22.3893" stroke="black" stroke-width="2.07778"/>
</svg>
