<svg width="24" height="24" viewBox="0 0 24 24" fill="none" xmlns="http://www.w3.org/2000/svg">
<path fill-rule="evenodd" clip-rule="evenodd" d="M8 3H3L3 8H8V3ZM10 19V14C10 12.8954 9.10457 12 8 12H3C1.89543 12 1 12.8954 1 14V19C1 20.1046 1.89543 21 3 21H8C9.10457 21 10 20.1046 10 19ZM8 14H3L3 19H8V14ZM19 3H14V8H19V3ZM3 1C1.89543 1 1 1.89543 1 3V8C1 9.10457 1.89543 10 3 10H8C9.10457 10 10 9.10457 10 8V3C10 1.89543 9.10457 1 8 1H3ZM14 1C12.8954 1 12 1.89543 12 3V8C12 9.10457 12.8954 10 14 10H19C20.1046 10 21 9.10457 21 8V3C21 1.89543 20.1046 1 19 1H14Z" fill="currentColor"/>
<path d="M16.3721 11C19.339 11 21.744 13.4051 21.7441 16.3721C21.7441 17.4942 21.3998 18.5358 20.8115 19.3975L22.8447 21.4297C23.2352 21.8201 23.235 22.4542 22.8447 22.8447C22.4542 23.2353 21.8202 23.2353 21.4297 22.8447L19.3975 20.8115C18.5358 21.3998 17.4942 21.7441 16.3721 21.7441C13.4051 21.744 11 19.339 11 16.3721C11.0001 13.4052 13.4052 11.0001 16.3721 11ZM16.3721 13C14.5098 13.0001 13.0001 14.5098 13 16.3721C13 18.2345 14.5097 19.744 16.3721 19.7441C18.2345 19.7441 19.7441 18.2345 19.7441 16.3721C19.744 14.5097 18.2345 13 16.3721 13Z" fill="currentColor"/>
</svg>
