<svg width="24" height="24" viewBox="0 0 24 24" fill="none" xmlns="http://www.w3.org/2000/svg">
<path d="M23.453 5.98234C23.2019 6.78454 22.8347 7.54562 22.363 8.24134L22.382 8.21134C21.934 8.95801 21.399 9.82068 20.777 10.7993C20.2437 11.572 19.9613 11.972 19.93 11.9993C19.7875 12.1778 19.6953 12.3912 19.663 12.6173L19.662 12.6243C19.6875 12.8281 19.7821 13.0169 19.93 13.1593L20.33 13.6053C22.47 15.8047 23.6737 17.3207 23.941 18.1533C23.9917 18.2901 24.008 18.4373 23.9885 18.5818C23.9689 18.7264 23.9142 18.8639 23.829 18.9823L23.831 18.9793C23.7303 19.0832 23.6076 19.1631 23.4719 19.2131C23.3362 19.2631 23.191 19.282 23.047 19.2683H23.051H20.415C20.078 19.2683 19.768 19.1503 19.525 18.9543L19.528 18.9563C19.1811 18.6719 18.8626 18.3544 18.577 18.0083L18.568 17.9963C18.1073 17.4757 17.6987 17.0373 17.342 16.6813C16.154 15.552 15.2773 14.9873 14.712 14.9873C14.5295 14.971 14.3471 15.0187 14.196 15.1223L14.199 15.1203C14.1341 15.2017 14.0864 15.2955 14.0589 15.3959C14.0314 15.4963 14.0246 15.6012 14.039 15.7043V15.7003C14.0001 16.1669 13.9874 16.6353 14.001 17.1033V17.0863V18.2453C14.0294 18.3838 14.0197 18.5273 13.9728 18.6607C13.926 18.794 13.8438 18.9121 13.735 19.0023L13.734 19.0033C13.2276 19.2321 12.6701 19.3242 12.117 19.2703L12.13 19.2713C10.6162 19.2454 9.13815 18.807 7.855 18.0033L7.89 18.0233C6.41039 17.1313 5.14216 15.9286 4.173 14.4983L4.146 14.4563C3.20524 13.2018 2.37829 11.8659 1.675 10.4643L1.605 10.3103C1.13636 9.40278 0.724567 8.46698 0.372 7.50834L0.312 7.32334C0.148535 6.82568 0.0444799 6.31044 0.002 5.78834L0 5.76334C0 5.25801 0.297333 5.00534 0.892 5.00534H3.522C3.78789 4.98452 4.05183 5.06488 4.261 5.23034L4.259 5.22834C4.459 5.44734 4.607 5.71634 4.68 6.01634L4.683 6.02834C5.11749 7.27266 5.64809 8.4813 6.27 9.64334L6.203 9.50634C6.65249 10.4194 7.19646 11.2828 7.826 12.0823L7.803 12.0513C8.33633 12.706 8.75233 13.0333 9.051 13.0333L9.083 13.0343C9.15331 13.0344 9.22241 13.016 9.28333 12.9809C9.34425 12.9458 9.39484 12.8952 9.43 12.8343L9.431 12.8323C9.52674 12.5817 9.56468 12.3127 9.542 12.0453V12.0513V8.17234C9.52331 7.73254 9.41439 7.30128 9.222 6.90534L9.23 6.92434C9.11335 6.67271 8.96186 6.43875 8.78 6.22934L8.783 6.23334C8.61531 6.06593 8.50623 5.84881 8.472 5.61434L8.471 5.60834C8.471 5.43834 8.549 5.28534 8.671 5.18534L8.672 5.18434C8.79755 5.06936 8.96176 5.00582 9.132 5.00634H13.286C13.3903 4.99417 13.4959 5.00809 13.5935 5.04684C13.6911 5.08558 13.7775 5.14795 13.845 5.22834L13.846 5.22934C13.9723 5.46272 14.0276 5.72795 14.005 5.99234V5.98734V11.1603C13.9891 11.3644 14.0366 11.5683 14.141 11.7443L14.139 11.7403C14.1756 11.7951 14.2252 11.8399 14.2832 11.871C14.3413 11.902 14.4061 11.9183 14.472 11.9183C14.6407 11.9074 14.8043 11.8514 14.944 11.7563L14.941 11.7583C15.213 11.5713 15.447 11.3583 15.65 11.1173L15.654 11.1123C16.2718 10.4133 16.8257 9.6603 17.309 8.86234L17.348 8.79234C17.692 8.22234 18.064 7.52034 18.401 6.79934L18.463 6.65234L18.909 5.76034C18.9875 5.52971 19.139 5.3309 19.3405 5.19397C19.542 5.05704 19.7827 4.98943 20.026 5.00134H20.023H22.654C23.3647 5.00134 23.6313 5.32834 23.454 5.98234H23.453Z" fill="#010101"/>
</svg>
