<svg width="23" height="23" viewBox="0 0 23 23" fill="none" xmlns="http://www.w3.org/2000/svg">
<path fill-rule="evenodd" clip-rule="evenodd" d="M10.0335 0.0312223C5.08229 0.532847 1.0524 4.28804 0.214038 9.18133C-0.119571 11.1285 0.096383 13.1856 0.829412 15.0433C0.990426 15.4513 1.39549 16.301 1.49953 16.4489C1.54996 16.5206 1.62029 16.2425 0.791022 19.2511C0.440412 20.5231 0.112997 21.7119 0.0634446 21.893C0.0132469 22.0763 -0.0123037 22.2222 0.00582688 22.2222C0.0335066 22.2222 1.73094 21.7834 2.66192 21.5355C2.82161 21.493 3.60216 21.2891 4.39645 21.0824L5.84061 20.7066L6.12241 20.8506C8.38121 22.0054 11.0822 22.3362 13.6145 21.7683C14.7466 21.5144 16.0148 20.9907 17.018 20.3629C18.4329 19.4773 19.7163 18.1882 20.587 16.7778C21.956 14.5603 22.4876 11.9491 22.0977 9.35799C21.6325 6.26718 19.8782 3.54108 17.2274 1.78956C15.7553 0.816888 14.0225 0.209844 12.1996 0.0281709C11.8082 -0.0108233 10.4293 -0.0088961 10.0335 0.0312223ZM12.0982 1.8936C15.7696 2.24724 18.9629 4.89547 19.9827 8.43238C20.245 9.34203 20.3367 10.0084 20.3378 11.0122C20.3386 11.8119 20.3082 12.146 20.1741 12.8096C19.519 16.0519 17.1599 18.6913 13.9855 19.7336C11.4991 20.55 8.66975 20.2328 6.4203 18.8855C6.26948 18.7951 6.12431 18.7215 6.09769 18.7219C6.07108 18.7223 5.28714 18.923 4.35561 19.1678C3.42408 19.4126 2.65711 19.6086 2.65128 19.6034C2.63721 19.5909 3.12119 17.7961 3.48393 16.5156C3.51977 16.389 3.54909 16.2694 3.54909 16.2497C3.54909 16.23 3.46457 16.0803 3.36124 15.917C2.66528 14.8171 2.23372 13.656 2.02777 12.3291C1.96638 11.9336 1.95538 11.7326 1.95489 10.9961C1.95441 10.2564 1.96483 10.0627 2.02567 9.6792C2.34477 7.66737 3.24645 5.90123 4.6687 4.50225C6.64516 2.55823 9.30448 1.62446 12.0982 1.8936ZM7.02468 5.93772C6.80775 5.99267 6.64422 6.0979 6.43469 6.31738C6.13834 6.62779 5.98259 6.84576 5.82277 7.17381C5.63082 7.56776 5.54474 7.92128 5.52552 8.39438C5.48297 9.44074 5.88219 10.4086 6.93664 11.8152C8.33443 13.6799 9.9185 14.9828 11.6412 15.6846C12.2586 15.9361 13.1071 16.2078 13.4572 16.2661C13.8451 16.3307 14.5127 16.3149 14.8162 16.2339C15.5166 16.047 16.2928 15.506 16.5167 15.0486C16.6522 14.7721 16.7504 14.3318 16.7556 13.9782C16.761 13.6044 16.7519 13.594 16.1684 13.3067C14.5422 12.5059 14.2099 12.3613 13.9963 12.3613C13.8436 12.3613 13.8422 12.3626 13.3994 12.9234C12.9848 13.4484 12.7254 13.7287 12.6106 13.7761C12.4792 13.8303 12.3547 13.789 11.6949 13.4725C10.4403 12.8705 9.4892 12.0338 8.68936 10.8284C8.40744 10.4035 8.34488 10.2683 8.3724 10.1435C8.38344 10.0934 8.49422 9.93953 8.61855 9.80158C9.09517 9.27268 9.29061 8.95614 9.29119 8.71199C9.29138 8.63355 9.25254 8.49434 9.19553 8.36917C9.14272 8.25325 8.92596 7.73672 8.71385 7.22134C8.32453 6.27556 8.22271 6.07439 8.08928 5.98731C7.99892 5.92837 7.20714 5.8915 7.02468 5.93772Z" fill="#010101"/>
</svg>
