<svg width="91" height="39" viewBox="0 0 91 39" fill="none" xmlns="http://www.w3.org/2000/svg">
<path d="M0 0H31.7458V31.5714H0V0Z" fill="#1E3DAF"/>
<path d="M6.22044 22.0348L7.67752 21.7264V9.918L6.06543 9.60968V7.8009H10.6847V14.1316C11.036 13.6178 11.4666 13.2204 11.9764 12.9395C12.4862 12.6517 13.0512 12.5078 13.6712 12.5078C14.8424 12.5078 15.7587 12.8949 16.42 13.6692C17.0883 14.4365 17.4224 15.6252 17.4224 17.2353V21.7264L18.8692 22.0348V23.8333H13.1028V22.0348L14.4049 21.7264V17.2148C14.4049 16.3515 14.2499 15.7417 13.9399 15.3854C13.6368 15.0223 13.1821 14.8408 12.5758 14.8408C12.1556 14.8408 11.787 14.9161 11.4701 15.0669C11.1601 15.2176 10.8983 15.43 10.6847 15.704V21.7264L11.9868 22.0348V23.8333H6.22044V22.0348Z" fill="white"/>
<path d="M19.7475 22.0348L21.2046 21.7264V14.8305L19.5925 14.5222V12.7134H24.2221V21.7264L25.6689 22.0348V23.8333H19.7475V22.0348ZM24.2221 10.0516H21.2046V7.8009H24.2221V10.0516Z" fill="white"/>
<path d="M43.9907 9.1793C45.7613 9.1793 47.1426 9.52187 48.1346 10.207C49.1267 10.8922 49.6227 11.9164 49.6227 13.2799C49.6227 13.9719 49.4367 14.5919 49.0647 15.14C48.6996 15.6813 48.1656 16.089 47.4629 16.363C48.3654 16.5549 49.0406 16.966 49.4884 17.5963C49.9431 18.2266 50.1704 18.9563 50.1704 19.7853C50.1704 21.2173 49.6951 22.3032 48.7443 23.0432C47.7936 23.7763 46.4468 24.1428 44.7038 24.1428H37.3047V22.3443L38.9064 22.036V11.2964L37.3047 10.9881V9.1793H38.9064H43.9907ZM41.924 17.5243V21.8408H44.7038C45.5029 21.8408 46.1126 21.6695 46.5329 21.3269C46.9531 20.9775 47.1633 20.4636 47.1633 19.7853C47.1633 19.0522 46.9841 18.4938 46.6259 18.1101C46.2676 17.7196 45.7027 17.5243 44.9311 17.5243H41.924ZM41.924 15.4484H44.0941C44.9001 15.4484 45.5202 15.2839 45.9542 14.9551C46.3882 14.6262 46.6052 14.1466 46.6052 13.5163C46.6052 12.8243 46.3848 12.3138 45.9438 11.985C45.5098 11.6561 44.8588 11.4917 43.9907 11.4917H41.924V15.4484Z" fill="white"/>
<path d="M51.5965 22.3443L53.0433 22.036V15.14L51.4415 14.8317V13.023H55.8541L55.9884 14.6467C56.2502 14.0712 56.5878 13.6225 57.0012 13.3004C57.4145 12.9784 57.8933 12.8174 58.4376 12.8174C58.596 12.8174 58.7614 12.8311 58.9336 12.8585C59.1127 12.8791 59.2608 12.9065 59.378 12.9407L59.0576 15.6745L57.8175 15.6436C57.3766 15.6436 57.0115 15.7293 56.7221 15.9006C56.4328 16.0718 56.2123 16.3151 56.0608 16.6302V22.036L57.5075 22.3443V24.1428H51.5965V22.3443Z" fill="white"/>
<path d="M67.1904 24.1428C67.1077 23.9578 67.0354 23.7694 66.9734 23.5776C66.9114 23.3789 66.8632 23.1802 66.8287 22.9815C66.4705 23.3926 66.033 23.7249 65.5163 23.9784C65.0065 24.2319 64.4209 24.3587 63.7595 24.3587C62.6641 24.3587 61.7926 24.064 61.1451 23.4748C60.5044 22.8787 60.184 22.0703 60.184 21.0494C60.184 20.008 60.6042 19.203 61.4447 18.6343C62.2852 18.0656 63.5184 17.7813 65.1443 17.7813H66.684V16.6919C66.684 16.1575 66.529 15.743 66.219 15.4484C65.909 15.1538 65.4509 15.0064 64.8446 15.0064C64.5001 15.0064 64.1936 15.0476 63.9249 15.1298C63.6562 15.2051 63.4392 15.2976 63.2738 15.4073L63.0775 16.5994H60.804L60.8144 14.1329C61.3655 13.7629 61.9959 13.4512 62.7055 13.1977C63.422 12.9442 64.2005 12.8174 65.0409 12.8174C66.4257 12.8174 67.5486 13.1566 68.4098 13.8349C69.2779 14.5063 69.7119 15.4655 69.7119 16.7125V21.3063C69.7119 21.4776 69.7119 21.6386 69.7119 21.7894C69.7188 21.9401 69.7325 22.084 69.7532 22.221L70.6729 22.3443V24.1428H67.1904ZM64.5759 22.1388C65.0306 22.1388 65.444 22.0429 65.816 21.851C66.188 21.6523 66.4774 21.4057 66.684 21.1111V19.4153H65.1443C64.5036 19.4153 64.0179 19.5661 63.6872 19.8675C63.3565 20.1622 63.1912 20.5184 63.1912 20.9364C63.1912 21.3132 63.3117 21.6078 63.5529 21.8202C63.8009 22.0326 64.1419 22.1388 64.5759 22.1388Z" fill="white"/>
<path d="M71.6133 22.3443L73.0704 22.036V15.14L71.4583 14.8317V13.023H76.0879V22.036L77.5347 22.3443V24.1428H71.6133V22.3443ZM76.0879 10.3612H73.0704V8.11047H76.0879V10.3612Z" fill="white"/>
<path d="M78.3614 22.3443L79.8081 22.036V15.14L78.2064 14.8317V13.023H82.619L82.7533 14.6159C83.1253 14.0472 83.5835 13.6053 84.1277 13.2902C84.672 12.975 85.2817 12.8174 85.9568 12.8174C87.0867 12.8174 87.9685 13.1703 88.6023 13.876C89.2361 14.5817 89.553 15.6882 89.553 17.1955V22.036L90.9998 22.3443V24.1428H85.2334V22.3443L86.5252 22.036V17.2058C86.5252 16.459 86.3736 15.9314 86.0705 15.6231C85.7674 15.3079 85.3092 15.1503 84.6961 15.1503C84.2965 15.1503 83.9383 15.2325 83.6213 15.397C83.3044 15.5546 83.0392 15.7807 82.8256 16.0753V22.036L84.045 22.3443V24.1428H78.3614V22.3443Z" fill="white"/>
<path d="M0.00012064 39L0.000121293 31.5714L7.46973 31.5714L0.00012064 39Z" fill="#1E3DAF"/>
</svg>
