<svg width="32" height="32" viewBox="0 0 32 32" fill="none" xmlns="http://www.w3.org/2000/svg">
<g opacity="0.4">
<path d="M20.7685 8.51404H11.2311C9.70874 8.51404 8.47021 9.75257 8.47021 11.2749V20.8124C8.47021 22.3347 9.70874 23.5736 11.2311 23.5736H20.7685C22.2908 23.5736 23.5297 22.335 23.5297 20.8124V11.2749C23.5297 9.75257 22.2912 8.51404 20.7685 8.51404ZM15.9998 21.0013C13.2664 21.0013 11.0425 18.7774 11.0425 16.0436C11.0425 13.3102 13.2664 11.0863 15.9998 11.0863C18.7335 11.0863 20.9575 13.3102 20.9575 16.0436C20.9575 18.777 18.7332 21.0013 15.9998 21.0013ZM21.1168 12.1113C20.4698 12.1113 19.9436 11.5851 19.9436 10.9383C19.9436 10.2916 20.4698 9.7654 21.1168 9.7654C21.7636 9.7654 22.2898 10.2916 22.2898 10.9383C22.2898 11.5851 21.7636 12.1113 21.1168 12.1113Z" fill="currentColor"/>
<path d="M16.0003 13.1804C14.4223 13.1804 13.1375 14.4646 13.1375 16.0425C13.1375 17.6211 14.4223 18.9057 16.0003 18.9057C17.5789 18.9057 18.8627 17.6211 18.8627 16.0425C18.8627 14.4649 17.5785 13.1804 16.0003 13.1804Z" fill="currentColor"/>
<path d="M16 0C7.1638 0 0 7.1638 0 16C0 24.8362 7.1638 32 16 32C24.8362 32 32 24.8362 32 16C32 7.1638 24.8362 0 16 0ZM25.6245 20.8119C25.6245 23.4896 23.4465 25.6676 20.7687 25.6676H11.2313C8.55384 25.6676 6.37554 23.4896 6.37554 20.8119V11.2744C6.37554 8.59698 8.55384 6.41868 11.2313 6.41868H20.7687C23.4465 6.41868 25.6245 8.59698 25.6245 11.2744V20.8119Z" fill="currentColor"/>
</g>
</svg>
