<svg width="22" height="25" viewBox="0 0 22 25" fill="none" xmlns="http://www.w3.org/2000/svg">
<path d="M7.6875 10.3571C7.6875 11.0889 7.98382 11.7906 8.51126 12.3081C9.03871 12.8255 9.75408 13.1162 10.5 13.1162C11.2459 13.1162 11.9613 12.8255 12.4887 12.3081C13.0162 11.7906 13.3125 11.0889 13.3125 10.3571C13.3125 9.6254 13.0162 8.92363 12.4887 8.40621C11.9613 7.88879 11.2459 7.59811 10.5 7.59811C9.75408 7.59811 9.03871 7.88879 8.51126 8.40621C7.98382 8.92363 7.6875 9.6254 7.6875 10.3571Z" stroke="#C4C7CC" stroke-width="1.4" stroke-linecap="round" stroke-linejoin="round"/>
<path d="M15.8034 15.5597L11.8256 19.4619C11.474 19.8065 10.9974 20 10.5005 20C10.0035 20 9.52689 19.8065 9.17531 19.4619L5.19657 15.5597C4.14771 14.5308 3.43344 13.2198 3.14409 11.7926C2.85473 10.3654 3.00328 8.88613 3.57094 7.54176C4.13861 6.19739 5.09991 5.04834 6.33327 4.23992C7.56663 3.43149 9.01666 3 10.5 3C11.9833 3 13.4334 3.43149 14.6667 4.23992C15.9001 5.04834 16.8614 6.19739 17.4291 7.54176C17.9967 8.88613 18.1453 10.3654 17.8559 11.7926C17.5666 13.2198 16.8523 14.5308 15.8034 15.5597Z" stroke="#C4C7CC" stroke-width="1.4" stroke-linecap="round" stroke-linejoin="round"/>
</svg>
