<svg width="16" height="16" viewBox="0 0 16 16" fill="none" xmlns="http://www.w3.org/2000/svg">
<path fill-rule="evenodd" clip-rule="evenodd" d="M7.32118 9.26011L5.67743 7.63751C5.48091 7.44352 5.16433 7.44557 4.97034 7.64209C4.77634 7.83861 4.77839 8.15519 4.97492 8.34918L7.00768 10.3558C7.21669 10.5621 7.55768 10.5447 7.7446 10.3182L11.0452 6.31818C11.2209 6.10518 11.1907 5.79004 10.9777 5.61429C10.7647 5.43854 10.4496 5.46873 10.2738 5.68173L7.32118 9.26011Z" fill="#696974"/>
<path fill-rule="evenodd" clip-rule="evenodd" d="M6.3335 0.833313H9.66683C12.7044 0.833313 15.1668 3.29575 15.1668 6.33331V9.66665C15.1668 12.7042 12.7044 15.1666 9.66683 15.1666H6.3335C3.29593 15.1666 0.833496 12.7042 0.833496 9.66665V6.33331C0.833496 3.29575 3.29593 0.833313 6.3335 0.833313ZM6.3335 1.83331C3.84821 1.83331 1.8335 3.84803 1.8335 6.33331V9.66665C1.8335 12.1519 3.84821 14.1666 6.3335 14.1666H9.66683C12.1521 14.1666 14.1668 12.1519 14.1668 9.66665V6.33331C14.1668 3.84803 12.1521 1.83331 9.66683 1.83331H6.3335Z" fill="#696974"/>
</svg>
