<svg width="16" height="16" viewBox="0 0 16 16" fill="none" xmlns="http://www.w3.org/2000/svg">
<path fill-rule="evenodd" clip-rule="evenodd" d="M7.1345 11.0439C6.80907 11.3694 6.28143 11.3694 5.95599 11.0439C5.63055 10.7185 5.63055 10.1909 5.95599 9.86542L11.1414 4.67997C11.3367 4.48471 11.3367 4.16812 11.1414 3.97286C10.9462 3.7776 10.6296 3.7776 10.4343 3.97286L5.24889 9.15831C4.53292 9.87427 4.53292 11.0351 5.24889 11.751C5.96485 12.467 7.12565 12.467 7.84161 11.751C8.03687 11.5558 8.03687 11.2392 7.84161 11.0439C7.64635 10.8487 7.32977 10.8487 7.1345 11.0439Z" fill="#696974"/>
<path fill-rule="evenodd" clip-rule="evenodd" d="M7.09961 11.0786L7.80672 11.7857L11.6127 7.97975L10.9056 7.27264L7.09961 11.0786Z" fill="#696974"/>
<path fill-rule="evenodd" clip-rule="evenodd" d="M7.09985 11.0787L7.80696 11.7858L13.0272 6.56557C14.2638 5.32891 14.2638 3.32388 13.0272 2.08722C11.7905 0.850564 9.78548 0.850564 8.54882 2.08722L3.32861 7.30743L4.03572 8.01454L9.25593 2.79433C10.1021 1.94819 11.4739 1.94819 12.3201 2.79433C13.1662 3.64047 13.1662 5.01232 12.3201 5.85846L7.09985 11.0787Z" fill="#696974"/>
<path fill-rule="evenodd" clip-rule="evenodd" d="M13.2629 8.68688L9.02028 12.9295C7.65345 14.2964 5.43737 14.2964 4.07054 12.9295C2.7037 11.5627 2.7037 9.34661 4.07054 7.97977C4.2658 7.78451 4.2658 7.46793 4.07054 7.27267C3.87527 7.07741 3.55869 7.07741 3.36343 7.27267C1.60607 9.03003 1.60607 11.8793 3.36343 13.6366C5.12079 15.394 7.97003 15.394 9.72739 13.6366L13.97 9.39399C14.1653 9.19873 14.1653 8.88214 13.97 8.68688C13.7748 8.49162 13.4582 8.49162 13.2629 8.68688Z" fill="#696974"/>
</svg>
