<svg width="20" height="20" viewBox="0 0 20 20" fill="none" xmlns="http://www.w3.org/2000/svg">
<path fill-rule="evenodd" clip-rule="evenodd" d="M5 2H15C16.6569 2 18 3.34315 18 5V15C18 16.6569 16.6569 18 15 18H5C3.34315 18 2 16.6569 2 15V5C2 3.34315 3.34315 2 5 2Z" fill="#3DD598"/>
<path d="M7.36023 9.2801C6.96718 8.89211 6.33403 8.89621 5.94604 9.28925C5.55806 9.6823 5.56216 10.3155 5.9552 10.7034L8.49616 13.2117C8.91418 13.6243 9.59615 13.5895 9.96999 13.1365L14.0957 8.13648C14.4472 7.71049 14.3868 7.08021 13.9608 6.72871C13.5348 6.37721 12.9046 6.43759 12.5531 6.86358L9.12315 11.0203L7.36023 9.2801Z" fill="white"/>
</svg>
