<svg width="16" height="16" viewBox="0 0 16 16" fill="none" xmlns="http://www.w3.org/2000/svg">
<path fill-rule="evenodd" clip-rule="evenodd" d="M8.94099 8.00018L12.459 11.5214C12.7193 11.7819 12.7191 12.204 12.4586 12.4642C12.1981 12.7245 11.776 12.7243 11.5158 12.4638L7.99748 8.94229L4.47097 12.4636C4.21043 12.7237 3.78832 12.7234 3.52816 12.4629C3.26801 12.2023 3.26832 11.7802 3.52886 11.52L7.05509 7.99905L3.5304 4.47117C3.27017 4.2107 3.27036 3.78859 3.53083 3.52836C3.79129 3.26813 4.2134 3.26832 4.47364 3.52879L7.9986 7.05695L11.5159 3.5449C11.7764 3.28474 12.1985 3.28506 12.4587 3.5456C12.7188 3.80614 12.7185 4.22825 12.458 4.48841L8.94099 8.00018Z" fill="#50B5FF"/>
</svg>
