<svg width="24" height="24" viewBox="0 0 24 24" fill="none" xmlns="http://www.w3.org/2000/svg">
<path d="M10.2484 7.00001C10.2155 6.99978 10.183 7.00611 10.1527 7.01861C10.1223 7.03112 10.0948 7.04955 10.0717 7.07283C10.0485 7.09611 10.0303 7.12378 10.018 7.1542C10.0057 7.18462 9.99958 7.21719 10 7.25001C10 7.29952 10.0147 7.34792 10.0423 7.38907C10.0698 7.43022 10.109 7.46226 10.1547 7.48113C10.2005 7.5 10.2509 7.50486 10.2994 7.49507C10.348 7.48529 10.3925 7.46131 10.4274 7.42618C10.4623 7.39105 10.486 7.34635 10.4954 7.29775C10.5049 7.24914 10.4997 7.19883 10.4805 7.15317C10.4613 7.10752 10.429 7.06859 10.3877 7.04133C10.3464 7.01406 10.2979 6.99968 10.2484 7.00001" stroke="#696974" stroke-linecap="round" stroke-linejoin="round"/>
<path d="M10.2484 12C10.2155 11.9998 10.183 12.0061 10.1527 12.0186C10.1223 12.0311 10.0948 12.0495 10.0717 12.0728C10.0485 12.0961 10.0303 12.1238 10.018 12.1542C10.0057 12.1846 9.99958 12.2172 10 12.25C10 12.2995 10.0147 12.3479 10.0423 12.3891C10.0698 12.4302 10.109 12.4623 10.1547 12.4811C10.2005 12.5 10.2509 12.5049 10.2994 12.4951C10.348 12.4853 10.3925 12.4613 10.4274 12.4262C10.4623 12.3911 10.486 12.3464 10.4954 12.2977C10.5049 12.2491 10.4997 12.1988 10.4805 12.1532C10.4613 12.1075 10.429 12.0686 10.3877 12.0413C10.3464 12.0141 10.2979 11.9997 10.2484 12" stroke="#696974" stroke-linecap="round" stroke-linejoin="round"/>
<path d="M10.2484 17C10.2155 16.9998 10.183 17.0061 10.1527 17.0186C10.1223 17.0311 10.0948 17.0495 10.0717 17.0728C10.0485 17.0961 10.0303 17.1238 10.018 17.1542C10.0057 17.1846 9.99958 17.2172 10 17.25C10 17.2995 10.0147 17.3479 10.0423 17.3891C10.0698 17.4302 10.109 17.4623 10.1547 17.4811C10.2005 17.5 10.2509 17.5049 10.2994 17.4951C10.348 17.4853 10.3925 17.4613 10.4274 17.4262C10.4623 17.3911 10.486 17.3464 10.4954 17.2977C10.5049 17.2491 10.4997 17.1988 10.4805 17.1532C10.4613 17.1075 10.429 17.0686 10.3877 17.0413C10.3464 17.0141 10.2979 16.9997 10.2484 17" stroke="#696974" stroke-linecap="round" stroke-linejoin="round"/>
<path d="M14.3983 7.00001C14.3654 6.99978 14.3329 7.00611 14.3026 7.01861C14.2722 7.03112 14.2447 7.04955 14.2216 7.07283C14.1984 7.09611 14.1802 7.12378 14.1679 7.1542C14.1556 7.18462 14.1495 7.21719 14.1499 7.25001C14.1499 7.29952 14.1646 7.34792 14.1922 7.38907C14.2197 7.43022 14.2589 7.46226 14.3046 7.48113C14.3504 7.5 14.4008 7.50486 14.4493 7.49507C14.4979 7.48529 14.5424 7.46131 14.5773 7.42618C14.6122 7.39105 14.6359 7.34635 14.6453 7.29775C14.6548 7.24914 14.6496 7.19883 14.6304 7.15317C14.6112 7.10752 14.5789 7.06859 14.5376 7.04133C14.4963 7.01406 14.4478 6.99968 14.3983 7.00001" stroke="#696974" stroke-linecap="round" stroke-linejoin="round"/>
<path d="M14.3983 12C14.3654 11.9998 14.3329 12.0061 14.3026 12.0186C14.2722 12.0311 14.2447 12.0495 14.2216 12.0728C14.1984 12.0961 14.1802 12.1238 14.1679 12.1542C14.1556 12.1846 14.1495 12.2172 14.1499 12.25C14.1499 12.2995 14.1646 12.3479 14.1922 12.3891C14.2197 12.4302 14.2589 12.4623 14.3046 12.4811C14.3504 12.5 14.4008 12.5049 14.4493 12.4951C14.4979 12.4853 14.5424 12.4613 14.5773 12.4262C14.6122 12.3911 14.6359 12.3464 14.6453 12.2977C14.6548 12.2491 14.6496 12.1988 14.6304 12.1532C14.6112 12.1075 14.5789 12.0686 14.5376 12.0413C14.4963 12.0141 14.4478 11.9997 14.3983 12" stroke="#696974" stroke-linecap="round" stroke-linejoin="round"/>
<path d="M14.3983 17C14.3654 16.9998 14.3329 17.0061 14.3026 17.0186C14.2722 17.0311 14.2447 17.0495 14.2216 17.0728C14.1984 17.0961 14.1802 17.1238 14.1679 17.1542C14.1556 17.1846 14.1495 17.2172 14.1499 17.25C14.1499 17.2995 14.1646 17.3479 14.1922 17.3891C14.2197 17.4302 14.2589 17.4623 14.3046 17.4811C14.3504 17.5 14.4008 17.5049 14.4493 17.4951C14.4979 17.4853 14.5424 17.4613 14.5773 17.4262C14.6122 17.3911 14.6359 17.3464 14.6453 17.2977C14.6548 17.2491 14.6496 17.1988 14.6304 17.1532C14.6112 17.1075 14.5789 17.0686 14.5376 17.0413C14.4963 17.0141 14.4478 16.9997 14.3983 17" stroke="#696974" stroke-linecap="round" stroke-linejoin="round"/>
</svg>
