<svg width="32" height="32" viewBox="0 0 32 32" fill="none" xmlns="http://www.w3.org/2000/svg">
<path fill-rule="evenodd" clip-rule="evenodd" d="M16 32C24.8366 32 32 24.8366 32 16C32 7.16344 24.8366 0 16 0C7.16344 0 0 7.16344 0 16C0 24.8366 7.16344 32 16 32Z" fill="#A461D8"/>
<path d="M9.8003 17.052V21H8.2043V11.27H11.5643C12.6656 11.27 13.515 11.5453 14.1123 12.096C14.7096 12.6373 15.0083 13.328 15.0083 14.168C15.0083 14.8213 14.8076 15.4093 14.4063 15.932C14.0143 16.4547 13.4076 16.7953 12.5863 16.954L15.1623 21H13.2163L10.7803 17.052H9.8003ZM9.8003 12.516V15.806H11.5643C12.171 15.806 12.6236 15.6613 12.9223 15.372C13.221 15.0827 13.3703 14.6813 13.3703 14.168C13.3703 13.6453 13.221 13.2393 12.9223 12.95C12.6236 12.6607 12.171 12.516 11.5643 12.516H9.8003ZM18.646 17.052V21H17.05V11.27H20.41C21.5113 11.27 22.3607 11.5453 22.958 12.096C23.5553 12.6373 23.854 13.328 23.854 14.168C23.854 14.8213 23.6533 15.4093 23.252 15.932C22.86 16.4547 22.2533 16.7953 21.432 16.954L24.008 21H22.062L19.626 17.052H18.646ZM18.646 12.516V15.806H20.41C21.0167 15.806 21.4693 15.6613 21.768 15.372C22.0667 15.0827 22.216 14.6813 22.216 14.168C22.216 13.6453 22.0667 13.2393 21.768 12.95C21.4693 12.6607 21.0167 12.516 20.41 12.516H18.646Z" fill="white"/>
</svg>
