<svg width="32" height="32" viewBox="0 0 32 32" fill="none" xmlns="http://www.w3.org/2000/svg">
<path fill-rule="evenodd" clip-rule="evenodd" d="M16 32C24.8366 32 32 24.8366 32 16C32 7.16344 24.8366 0 16 0C7.16344 0 0 7.16344 0 16C0 24.8366 7.16344 32 16 32Z" fill="#FFB800"/>
<path d="M9.83545 21H8.23945V11.27H9.83545V15.708L13.6155 11.27H15.7015L11.3055 16.156L15.7015 21H13.6015L9.83545 16.646V21ZM23.6648 21L22.9648 19.012H18.8908L18.1908 21H16.5248L20.0108 11.256H21.8588L25.3448 21H23.6648ZM19.3248 17.766H22.5308L20.9348 13.188L19.3248 17.766Z" fill="white"/>
</svg>
