<svg width="33" height="33" viewBox="0 0 33 33" fill="none" xmlns="http://www.w3.org/2000/svg">
<path fill-rule="evenodd" clip-rule="evenodd" d="M16.5 32.5C25.3366 32.5 32.5 25.3366 32.5 16.5C32.5 7.66344 25.3366 0.5 16.5 0.5C7.66344 0.5 0.5 7.66344 0.5 16.5C0.5 25.3366 7.66344 32.5 16.5 32.5Z" stroke="#E2E2EA"/>
<path d="M15.5195 16.628V17.588H12.9755V20.168H11.9555V17.588H9.41153V16.628H11.9555V14.048H12.9755V16.628H15.5195ZM17.6341 14.78C17.6981 14.084 17.9861 13.54 18.4981 13.148C19.0181 12.748 19.6781 12.548 20.4781 12.548C21.2861 12.548 21.9221 12.76 22.3861 13.184C22.8581 13.608 23.0941 14.148 23.0941 14.804C23.0941 15.276 22.9621 15.692 22.6981 16.052C22.4341 16.404 22.0941 16.644 21.6781 16.772V16.832C22.1661 16.968 22.5501 17.232 22.8301 17.624C23.1101 18.016 23.2501 18.54 23.2501 19.196C23.2501 19.852 23.0061 20.408 22.5181 20.864C22.0381 21.32 21.3701 21.548 20.5141 21.548C19.6661 21.548 18.9701 21.332 18.4261 20.9C17.8821 20.468 17.5821 19.856 17.5261 19.064H18.5581C18.5981 19.52 18.7861 19.896 19.1221 20.192C19.4661 20.48 19.9181 20.624 20.4781 20.624C21.0461 20.624 21.4781 20.476 21.7741 20.18C22.0781 19.876 22.2301 19.488 22.2301 19.016C22.2301 18.384 22.0301 17.936 21.6301 17.672C21.2301 17.408 20.6181 17.276 19.7941 17.276H19.5061V16.364H19.8061C21.3101 16.348 22.0621 15.864 22.0621 14.912C22.0621 14.472 21.9181 14.124 21.6301 13.868C21.3501 13.612 20.9541 13.484 20.4421 13.484C19.9301 13.484 19.5261 13.604 19.2301 13.844C18.9341 14.076 18.7541 14.388 18.6901 14.78H17.6341Z" fill="#696974"/>
</svg>
