<svg width="20" height="20" viewBox="0 0 20 20" fill="none" xmlns="http://www.w3.org/2000/svg">
<path fill-rule="evenodd" clip-rule="evenodd" d="M6.66683 0.833374H13.3335C16.5552 0.833374 19.1668 3.44505 19.1668 6.66671V13.3334C19.1668 16.555 16.5552 19.1667 13.3335 19.1667H6.66683C3.44517 19.1667 0.833496 16.555 0.833496 13.3334V6.66671C0.833496 3.44505 3.44517 0.833374 6.66683 0.833374ZM6.66683 2.50004C4.36564 2.50004 2.50016 4.36552 2.50016 6.66671V13.3334C2.50016 15.6346 4.36564 17.5 6.66683 17.5H13.3335C15.6347 17.5 17.5002 15.6346 17.5002 13.3334V6.66671C17.5002 4.36552 15.6347 2.50004 13.3335 2.50004H6.66683ZM7.24317 9.39872L9.13576 11.267L12.6816 6.96966C12.9746 6.61467 13.4998 6.56435 13.8548 6.85727C14.2098 7.15019 14.2601 7.67542 13.9672 8.03041L9.84146 13.0304C9.52993 13.408 8.96162 13.437 8.61327 13.0931L6.07231 10.5848C5.74478 10.2615 5.74136 9.73388 6.06468 9.40635C6.38801 9.07881 6.91563 9.07539 7.24317 9.39872Z" fill="#B5B5BE"/>
</svg>
