<svg width="20" height="20" viewBox="0 0 20 20" fill="none" xmlns="http://www.w3.org/2000/svg">
<path fill-rule="evenodd" clip-rule="evenodd" d="M3.90226 3.90244C0.921253 6.88344 0.921253 11.7166 3.90226 14.6976C6.74072 17.5361 11.2584 17.6718 14.2575 15.1048L17.2333 18.0806C18.019 18.8662 19.1975 17.6877 18.4118 16.9021L15.4 13.8903C17.6564 10.8995 17.4222 6.62722 14.6974 3.90244C11.7164 0.921437 6.88326 0.921437 3.90226 3.90244ZM5.08077 5.08095C7.4109 2.75082 11.1888 2.75082 13.5189 5.08095C15.849 7.41108 15.849 11.189 13.5189 13.5191C11.1888 15.8492 7.4109 15.8492 5.08077 13.5191C2.75064 11.189 2.75064 7.41108 5.08077 5.08095Z" fill="#B5B5BE"/>
</svg>
