<svg width="330" height="237" viewBox="0 0 330 237" fill="none" xmlns="http://www.w3.org/2000/svg">
<g opacity="0.4">
<mask id="path-2-outside-1_1_4758" maskUnits="userSpaceOnUse" x="12.7822" y="47" width="317" height="116" fill="black">
<rect fill="white" x="12.7822" y="47" width="317" height="116"/>
<path d="M14.7637 136.176V119.251L66.0024 50.312H92.398L42.2463 119.251L29.9801 115.68H115.533V136.176H14.7637ZM73.3 159V136.176L74.0763 115.68V95.3399H97.8324V159H73.3ZM169.637 160.863C160.735 160.863 152.764 158.689 145.725 154.342C138.687 149.891 133.149 143.473 129.112 135.089C125.075 126.704 123.056 116.56 123.056 104.656C123.056 92.7521 125.075 82.6079 129.112 74.2234C133.149 65.8389 138.687 59.4729 145.725 55.1254C152.764 50.6743 160.735 48.4488 169.637 48.4488C178.642 48.4488 186.613 50.6743 193.548 55.1254C200.587 59.4729 206.125 65.8389 210.162 74.2234C214.199 82.6079 216.217 92.7521 216.217 104.656C216.217 116.56 214.199 126.704 210.162 135.089C206.125 143.473 200.587 149.891 193.548 154.342C186.613 158.689 178.642 160.863 169.637 160.863ZM169.637 139.591C173.881 139.591 177.555 138.401 180.661 136.02C183.87 133.639 186.354 129.861 188.114 124.686C189.977 119.51 190.909 112.833 190.909 104.656C190.909 96.4785 189.977 89.802 188.114 84.6264C186.354 79.4508 183.87 75.6726 180.661 73.2918C177.555 70.911 173.881 69.7206 169.637 69.7206C165.496 69.7206 161.822 70.911 158.613 73.2918C155.507 75.6726 153.023 79.4508 151.16 84.6264C149.4 89.802 148.52 96.4785 148.52 104.656C148.52 112.833 149.4 119.51 151.16 124.686C153.023 129.861 155.507 133.639 158.613 136.02C161.822 138.401 165.496 139.591 169.637 139.591ZM227.197 136.176V119.251L278.435 50.312H304.831L254.679 119.251L242.413 115.68H327.966V136.176H227.197ZM285.733 159V136.176L286.509 115.68V95.3399H310.265V159H285.733Z"/>
</mask>
<path d="M14.7637 136.176H13.3937V137.546H14.7637V136.176ZM14.7637 119.251L13.6642 118.434L13.3937 118.798V119.251H14.7637ZM66.0023 50.312V48.942H65.3136L64.9028 49.4948L66.0023 50.312ZM92.398 50.312L93.5059 51.118L95.0888 48.942H92.398V50.312ZM42.2463 119.251L41.8633 120.567L42.7877 120.836L43.3541 120.057L42.2463 119.251ZM29.9801 115.68V114.31L29.5971 116.995L29.9801 115.68ZM115.533 115.68H116.903V114.31H115.533V115.68ZM115.533 136.176V137.546H116.903V136.176H115.533ZM73.3 159H71.93V160.37H73.3V159ZM73.3 136.176L71.9309 136.124L71.93 136.15V136.176H73.3ZM74.0763 115.68L75.4454 115.732L75.4463 115.706V115.68H74.0763ZM74.0763 95.3399V93.9699H72.7063V95.3399H74.0763ZM97.8324 95.3399H99.2024V93.9699H97.8324V95.3399ZM97.8324 159V160.37H99.2024V159H97.8324ZM14.7637 136.176H16.1338V119.251H14.7637H13.3937V136.176H14.7637ZM14.7637 119.251L15.8633 120.069L67.1019 51.1293L66.0023 50.312L64.9028 49.4948L13.6642 118.434L14.7637 119.251ZM66.0023 50.312V51.6821H92.398V50.312V48.942H66.0023V50.312ZM92.398 50.312L91.2901 49.5061L41.1384 118.445L42.2463 119.251L43.3541 120.057L93.5059 51.118L92.398 50.312ZM42.2463 119.251L42.6292 117.936L30.363 114.365L29.9801 115.68L29.5971 116.995L41.8633 120.567L42.2463 119.251ZM29.9801 115.68V117.05H115.533V115.68V114.31H29.9801V115.68ZM115.533 115.68H114.163V136.176H115.533H116.903V115.68H115.533ZM115.533 136.176V134.806H14.7637V136.176V137.546H115.533V136.176ZM73.3 159H74.67V136.176H73.3H71.93V159H73.3ZM73.3 136.176L74.669 136.227L75.4454 115.732L74.0763 115.68L72.7073 115.628L71.9309 136.124L73.3 136.176ZM74.0763 115.68H75.4463V95.3399H74.0763H72.7063V115.68H74.0763ZM74.0763 95.3399V96.7099H97.8324V95.3399V93.9699H74.0763V95.3399ZM97.8324 95.3399H96.4624V159H97.8324H99.2024V95.3399H97.8324ZM97.8324 159V157.63H73.3V159V160.37H97.8324V159ZM145.725 154.342L144.993 155.5L144.999 155.504L145.005 155.508L145.725 154.342ZM129.112 135.089L127.877 135.683L129.112 135.089ZM129.112 74.2234L130.346 74.8177V74.8177L129.112 74.2234ZM145.725 55.1254L146.445 56.291L146.452 56.2872L146.458 56.2833L145.725 55.1254ZM193.548 55.1254L192.808 56.2784L192.818 56.2848L192.828 56.291L193.548 55.1254ZM210.162 74.2234L208.927 74.8177V74.8177L210.162 74.2234ZM210.162 135.089L208.927 134.494V134.494L210.162 135.089ZM193.548 154.342L194.276 155.503L194.28 155.5L193.548 154.342ZM180.661 136.02L179.845 134.92L179.836 134.926L179.827 134.933L180.661 136.02ZM188.114 124.686L186.825 124.222L186.821 124.233L186.817 124.245L188.114 124.686ZM188.114 84.6264L186.817 85.0674L186.821 85.079L186.825 85.0904L188.114 84.6264ZM180.661 73.2918L179.827 74.379L179.836 74.3856L179.845 74.392L180.661 73.2918ZM158.613 73.2918L157.796 72.1915L157.788 72.198L157.779 72.2045L158.613 73.2918ZM151.16 84.6264L149.871 84.1623L149.867 84.1738L149.863 84.1854L151.16 84.6264ZM151.16 124.686L149.863 125.127L149.867 125.138L149.871 125.15L151.16 124.686ZM158.613 136.02L157.779 137.108L157.788 137.114L157.796 137.121L158.613 136.02ZM169.637 160.863V159.493C160.969 159.493 153.251 157.38 146.445 153.176L145.725 154.342L145.005 155.508C152.277 159.999 160.501 162.233 169.637 162.233V160.863ZM145.725 154.342L146.458 153.184C139.66 148.886 134.285 142.676 130.346 134.494L129.112 135.089L127.877 135.683C132.012 144.271 137.713 150.896 144.993 155.5L145.725 154.342ZM129.112 135.089L130.346 134.494C126.42 126.34 124.426 116.41 124.426 104.656H123.056H121.686C121.686 116.71 123.73 127.069 127.877 135.683L129.112 135.089ZM123.056 104.656H124.426C124.426 92.9023 126.42 82.9725 130.346 74.8177L129.112 74.2234L127.877 73.6291C123.73 82.2433 121.686 92.6019 121.686 104.656H123.056ZM129.112 74.2234L130.346 74.8177C134.284 66.6386 139.656 60.4844 146.445 56.291L145.725 55.1254L145.005 53.9598C137.717 58.4614 132.013 65.0392 127.877 73.6291L129.112 74.2234ZM145.725 55.1254L146.458 56.2833C153.262 51.9805 160.975 49.8188 169.637 49.8188V48.4488V47.0788C160.494 47.0788 152.266 49.3682 144.993 53.9674L145.725 55.1254ZM169.637 48.4488V49.8188C178.405 49.8188 186.114 51.9821 192.808 56.2784L193.548 55.1254L194.288 53.9724C187.112 49.3666 178.879 47.0788 169.637 47.0788V48.4488ZM193.548 55.1254L192.828 56.291C199.618 60.4844 204.989 66.6386 208.927 74.8177L210.162 74.2234L211.396 73.6291C207.26 65.0392 201.556 58.4614 194.268 53.9598L193.548 55.1254ZM210.162 74.2234L208.927 74.8177C212.854 82.9725 214.847 92.9023 214.847 104.656H216.217H217.587C217.587 92.6019 215.544 82.2433 211.396 73.6291L210.162 74.2234ZM216.217 104.656H214.847C214.847 116.41 212.854 126.34 208.927 134.494L210.162 135.089L211.396 135.683C215.544 127.069 217.587 116.71 217.587 104.656H216.217ZM210.162 135.089L208.927 134.494C204.988 142.676 199.613 148.886 192.816 153.184L193.548 154.342L194.28 155.5C201.561 150.896 207.261 144.271 211.396 135.683L210.162 135.089ZM193.548 154.342L192.82 153.181C186.125 157.378 178.412 159.493 169.637 159.493V160.863V162.233C178.873 162.233 187.101 160 194.276 155.503L193.548 154.342ZM169.637 139.591V140.961C174.155 140.961 178.129 139.688 181.494 137.108L180.661 136.02L179.827 134.933C176.982 137.115 173.606 138.221 169.637 138.221V139.591ZM180.661 136.02L181.477 137.121C184.978 134.523 187.594 130.471 189.411 125.127L188.114 124.686L186.817 124.245C185.114 129.251 182.761 132.756 179.845 134.92L180.661 136.02ZM188.114 124.686L189.403 125.15C191.339 119.772 192.279 112.922 192.279 104.656H190.909H189.539C189.539 112.745 188.615 119.249 186.825 124.222L188.114 124.686ZM190.909 104.656H192.279C192.279 96.3898 191.339 89.5405 189.403 84.1623L188.114 84.6264L186.825 85.0904C188.615 90.0635 189.539 96.5673 189.539 104.656H190.909ZM188.114 84.6264L189.411 84.1854C187.594 78.8408 184.978 74.7891 181.477 72.1915L180.661 73.2918L179.845 74.392C182.761 76.5561 185.114 80.0607 186.817 85.0674L188.114 84.6264ZM180.661 73.2918L181.494 72.2045C178.129 69.6245 174.155 68.3506 169.637 68.3506V69.7206V71.0906C173.606 71.0906 176.982 72.1975 179.827 74.379L180.661 73.2918ZM169.637 69.7206V68.3506C165.214 68.3506 161.25 69.6289 157.796 72.1915L158.613 73.2918L159.429 74.392C162.393 72.1931 165.779 71.0906 169.637 71.0906V69.7206ZM158.613 73.2918L157.779 72.2045C154.397 74.7976 151.788 78.8357 149.871 84.1623L151.16 84.6264L152.449 85.0904C154.258 80.0658 156.618 76.5476 159.446 74.379L158.613 73.2918ZM151.16 84.6264L149.863 84.1854C148.037 89.5549 147.15 96.3954 147.15 104.656H148.52H149.89C149.89 96.5617 150.763 90.0492 152.457 85.0674L151.16 84.6264ZM148.52 104.656H147.15C147.15 112.917 148.037 119.757 149.863 125.127L151.16 124.686L152.457 124.245C150.763 119.263 149.89 112.75 149.89 104.656H148.52ZM151.16 124.686L149.871 125.15C151.788 130.476 154.397 134.514 157.779 137.108L158.613 136.02L159.446 134.933C156.618 132.764 154.258 129.246 152.449 124.222L151.16 124.686ZM158.613 136.02L157.796 137.121C161.25 139.683 165.214 140.961 169.637 140.961V139.591V138.221C165.779 138.221 162.393 137.119 159.429 134.92L158.613 136.02ZM227.197 136.176H225.827V137.546H227.197V136.176ZM227.197 119.251L226.097 118.434L225.827 118.798V119.251H227.197ZM278.435 50.312V48.942H277.746L277.336 49.4948L278.435 50.312ZM304.831 50.312L305.939 51.118L307.522 48.942H304.831V50.312ZM254.679 119.251L254.296 120.567L255.221 120.836L255.787 120.057L254.679 119.251ZM242.413 115.68V114.31L242.03 116.995L242.413 115.68ZM327.966 115.68H329.336V114.31H327.966V115.68ZM327.966 136.176V137.546H329.336V136.176H327.966ZM285.733 159H284.363V160.37H285.733V159ZM285.733 136.176L284.364 136.124L284.363 136.15V136.176H285.733ZM286.509 115.68L287.878 115.732L287.879 115.706V115.68H286.509ZM286.509 95.3399V93.9699H285.139V95.3399H286.509ZM310.265 95.3399H311.635V93.9699H310.265V95.3399ZM310.265 159V160.37H311.635V159H310.265ZM227.197 136.176H228.567V119.251H227.197H225.827V136.176H227.197ZM227.197 119.251L228.296 120.069L279.535 51.1293L278.435 50.312L277.336 49.4948L226.097 118.434L227.197 119.251ZM278.435 50.312V51.6821H304.831V50.312V48.942H278.435V50.312ZM304.831 50.312L303.723 49.5061L253.571 118.445L254.679 119.251L255.787 120.057L305.939 51.118L304.831 50.312ZM254.679 119.251L255.062 117.936L242.796 114.365L242.413 115.68L242.03 116.995L254.296 120.567L254.679 119.251ZM242.413 115.68V117.05H327.966V115.68V114.31H242.413V115.68ZM327.966 115.68H326.596V136.176H327.966H329.336V115.68H327.966ZM327.966 136.176V134.806H227.197V136.176V137.546H327.966V136.176ZM285.733 159H287.103V136.176H285.733H284.363V159H285.733ZM285.733 136.176L287.102 136.227L287.878 115.732L286.509 115.68L285.14 115.628L284.364 136.124L285.733 136.176ZM286.509 115.68H287.879V95.3399H286.509H285.139V115.68H286.509ZM286.509 95.3399V96.7099H310.265V95.3399V93.9699H286.509V95.3399ZM310.265 95.3399H308.895V159H310.265H311.635V95.3399H310.265ZM310.265 159V157.63H285.733V159V160.37H310.265V159Z" fill="#1C9DAB" mask="url(#path-2-outside-1_1_4758)"/>
</g>
<path d="M8.76375 129.176V112.251L60.0024 43.312H86.398L36.2463 112.251L23.9801 108.68H109.533V129.176H8.76375ZM67.3 152V129.176L68.0763 108.68V88.3399H91.8324V152H67.3ZM163.637 153.863C154.735 153.863 146.764 151.689 139.725 147.342C132.687 142.891 127.149 136.473 123.112 128.089C119.075 119.704 117.056 109.56 117.056 97.656C117.056 85.7521 119.075 75.6079 123.112 67.2234C127.149 58.8389 132.687 52.4729 139.725 48.1254C146.764 43.6743 154.735 41.4488 163.637 41.4488C172.642 41.4488 180.613 43.6743 187.548 48.1254C194.587 52.4729 200.125 58.8389 204.162 67.2234C208.199 75.6079 210.217 85.7521 210.217 97.656C210.217 109.56 208.199 119.704 204.162 128.089C200.125 136.473 194.587 142.891 187.548 147.342C180.613 151.689 172.642 153.863 163.637 153.863ZM163.637 132.591C167.881 132.591 171.555 131.401 174.661 129.02C177.87 126.639 180.354 122.861 182.114 117.686C183.977 112.51 184.909 105.833 184.909 97.656C184.909 89.4785 183.977 82.802 182.114 77.6264C180.354 72.4508 177.87 68.6726 174.661 66.2918C171.555 63.911 167.881 62.7206 163.637 62.7206C159.496 62.7206 155.822 63.911 152.613 66.2918C149.507 68.6726 147.023 72.4508 145.16 77.6264C143.4 82.802 142.52 89.4785 142.52 97.656C142.52 105.833 143.4 112.51 145.16 117.686C147.023 122.861 149.507 126.639 152.613 129.02C155.822 131.401 159.496 132.591 163.637 132.591ZM221.197 129.176V112.251L272.435 43.312H298.831L248.679 112.251L236.413 108.68H321.966V129.176H221.197ZM279.733 152V129.176L280.509 108.68V88.3399H304.265V152H279.733Z" fill="#1BA2B1"/>
<g clip-path="url(#clip0_1_4758)">
<rect width="57.9138" height="1.15811" rx="0.390338" transform="matrix(0.494884 -0.868959 0.863041 0.505134 63.624 207.487)" fill="#1BA2B1"/>
<rect width="57.9138" height="1.15811" rx="0.390338" transform="matrix(0.494884 -0.868959 0.863041 0.505134 58.4756 236.355)" fill="#1BA2B1"/>
<rect width="57.9138" height="1.15811" rx="0.390338" transform="matrix(0.494884 -0.868959 0.863041 0.505134 220.437 236.355)" fill="#1BA2B1"/>
<rect width="57.9138" height="1.15811" rx="0.390338" transform="matrix(0.494884 -0.868959 0.863041 0.505134 182.351 210.615)" fill="#1BA2B1"/>
<rect width="31.3052" height="1.15811" rx="0.390338" transform="matrix(0.494884 -0.868959 0.863041 0.505134 131.569 181.643)" fill="#1BA2B1"/>
<rect width="16.5919" height="1.15811" rx="0.390338" transform="matrix(0.494884 -0.868959 0.863041 0.505134 43.4717 181.643)" fill="#1BA2B1"/>
<rect width="16.5919" height="1.15811" rx="0.390338" transform="matrix(0.494884 -0.868959 0.863041 0.505134 280.065 181.643)" fill="#1BA2B1"/>
<rect width="16.5919" height="1.15811" rx="0.390338" transform="matrix(0.494884 -0.868959 0.863041 0.505134 232.362 193.038)" fill="#1BA2B1"/>
</g>
<defs>
<clipPath id="clip0_1_4758">
<rect width="245.805" height="82.4997" fill="white" transform="translate(43.4717 154.44)"/>
</clipPath>
</defs>
</svg>
