<svg width="20" height="18" viewBox="0 0 20 18" fill="none" xmlns="http://www.w3.org/2000/svg">
<path fill-rule="evenodd" clip-rule="evenodd" d="M9.94975 5.70711L7.12132 2.87868C5.94975 1.70711 4.05025 1.70711 2.87868 2.87868C1.70711 4.05025 1.70711 5.94975 2.87868 7.12132L9.94975 14.1924L17.0208 7.12132C18.1924 5.94975 18.1924 4.05025 17.0208 2.87868C15.8492 1.70711 13.9497 1.70711 12.7782 2.87868L9.94975 5.70711ZM9.94975 17.0208L1.46447 8.53553C-0.488155 6.58291 -0.488155 3.41709 1.46447 1.46447C3.41709 -0.488155 6.58291 -0.488155 8.53553 1.46447L9.94975 2.87868L11.364 1.46447C13.3166 -0.488153 16.4824 -0.488154 18.435 1.46447C20.3876 3.41709 20.3876 6.58291 18.435 8.53553L9.94975 17.0208Z" fill="#010101"/>
</svg>
