<svg width="24" height="24" viewBox="0 0 24 24" fill="none" xmlns="http://www.w3.org/2000/svg">
<path fill-rule="evenodd" clip-rule="evenodd" d="M12 10C13.6569 10 15 8.65685 15 7C15 5.34315 13.6569 4 12 4C10.3431 4 9 5.34315 9 7C9 8.65685 10.3431 10 12 10ZM12 12C14.7614 12 17 9.76142 17 7C17 4.23858 14.7614 2 12 2C9.23858 2 7 4.23858 7 7C7 9.76142 9.23858 12 12 12Z" fill="#010101"/>
<path fill-rule="evenodd" clip-rule="evenodd" d="M4 22H6V19C6 16.7909 7.79086 15 10 15H14C16.2091 15 18 16.7909 18 19V22H20V19C20 15.6863 17.3137 13 14 13H10C6.68629 13 4 15.6863 4 19V22Z" fill="#010101"/>
</svg>
