<svg width="20" height="20" viewBox="0 0 20 20" fill="none" xmlns="http://www.w3.org/2000/svg">
<path fill-rule="evenodd" clip-rule="evenodd" d="M12.0546 13.6546C11.0184 14.3766 9.75867 14.8 8.4 14.8C4.86538 14.8 2 11.9346 2 8.4C2 4.86538 4.86538 2 8.4 2C11.9346 2 14.8 4.86538 14.8 8.4C14.8 9.99864 14.2139 11.4604 13.2448 12.582L17.5314 16.8686L16.4 18L12.0546 13.6546ZM13.2 8.4C13.2 11.051 11.051 13.2 8.4 13.2C5.74903 13.2 3.6 11.051 3.6 8.4C3.6 5.74903 5.74903 3.6 8.4 3.6C11.051 3.6 13.2 5.74903 13.2 8.4Z" fill="white"/>
</svg>
