<svg width="22" height="18" viewBox="0 0 22 18" fill="none" xmlns="http://www.w3.org/2000/svg">
<path d="M0.990023 8.46464L5.87215 9.95808C9.33027 7.7677 16.3076 3.35707 16.5517 3.2376C16.8568 3.08825 17.3145 2.78956 17.4671 2.93891C17.5891 3.05838 17.3145 3.38694 17.1619 3.53628L8.46564 11.3022L8.00794 16.0812C8.26222 16.0812 8.92334 15.9318 9.53361 15.3345L11.517 13.393C12.5341 14.1895 14.8124 15.9617 15.7888 16.6786C17.0094 17.5746 17.6196 16.9773 17.9248 15.7825C18.2299 14.5877 19.603 7.86726 20.2132 5.02973C20.8235 2.19219 21.4338 0.400059 20.9761 0.101371C20.6099 -0.137579 19.603 0.101371 19.1453 0.250715C13.7038 2.29175 2.42415 6.52317 0.837457 7.12054C-0.749233 7.71792 0.278047 8.26551 0.990023 8.46464Z" fill="#010101"/>
</svg>
