<svg width="789" height="608" viewBox="0 0 789 608" fill="none" xmlns="http://www.w3.org/2000/svg">
<g opacity="0.3">
<mask id="path-2-outside-1_1_3334" maskUnits="userSpaceOnUse" x="96" y="159" width="693" height="254" fill="black">
<rect fill="currentColor" x="96" y="159" width="693" height="254"/>
<path d="M99.2451 355.02V317.96L211.445 167H269.245L159.425 317.96L132.565 310.14H319.905V355.02H99.2451ZM227.425 405V355.02L229.125 310.14V265.6H281.145V405H227.425ZM438.379 409.08C418.886 409.08 401.432 404.32 386.019 394.8C370.606 385.053 358.479 371 349.639 352.64C340.799 334.28 336.379 312.067 336.379 286C336.379 259.933 340.799 237.72 349.639 219.36C358.479 201 370.606 187.06 386.019 177.54C401.432 167.793 418.886 162.92 438.379 162.92C458.099 162.92 475.552 167.793 490.739 177.54C506.152 187.06 518.279 201 527.119 219.36C535.959 237.72 540.379 259.933 540.379 286C540.379 312.067 535.959 334.28 527.119 352.64C518.279 371 506.152 385.053 490.739 394.8C475.552 404.32 458.099 409.08 438.379 409.08ZM438.379 362.5C447.672 362.5 455.719 359.893 462.519 354.68C469.546 349.467 474.986 341.193 478.839 329.86C482.919 318.527 484.959 303.907 484.959 286C484.959 268.093 482.919 253.473 478.839 242.14C474.986 230.807 469.546 222.533 462.519 217.32C455.719 212.107 447.672 209.5 438.379 209.5C429.312 209.5 421.266 212.107 414.239 217.32C407.439 222.533 401.999 230.807 397.919 242.14C394.066 253.473 392.139 268.093 392.139 286C392.139 303.907 394.066 318.527 397.919 329.86C401.999 341.193 407.439 349.467 414.239 354.68C421.266 359.893 429.312 362.5 438.379 362.5ZM564.421 355.02V317.96L676.621 167H734.421L624.601 317.96L597.741 310.14H785.081V355.02H564.421ZM692.601 405V355.02L694.301 310.14V265.6H746.321V405H692.601Z"/>
</mask>
<path d="M99.2451 355.02H96.2451V358.02H99.2451V355.02ZM99.2451 317.96L96.8373 316.17L96.2451 316.967V317.96H99.2451ZM211.445 167V164H209.937L209.037 165.21L211.445 167ZM269.245 167L271.671 168.765L275.137 164H269.245V167ZM159.425 317.96L158.586 320.84L160.611 321.43L161.851 319.725L159.425 317.96ZM132.565 310.14V307.14L131.726 313.02L132.565 310.14ZM319.905 310.14H322.905V307.14H319.905V310.14ZM319.905 355.02V358.02H322.905V355.02H319.905ZM227.425 405H224.425V408H227.425V405ZM227.425 355.02L224.427 354.906L224.425 354.963V355.02H227.425ZM229.125 310.14L232.123 310.254L232.125 310.197V310.14H229.125ZM229.125 265.6V262.6H226.125V265.6H229.125ZM281.145 265.6H284.145V262.6H281.145V265.6ZM281.145 405V408H284.145V405H281.145ZM99.2451 355.02H102.245V317.96H99.2451H96.2451V355.02H99.2451ZM99.2451 317.96L101.653 319.75L213.853 168.79L211.445 167L209.037 165.21L96.8373 316.17L99.2451 317.96ZM211.445 167V170H269.245V167V164H211.445V167ZM269.245 167L266.819 165.235L156.999 316.195L159.425 317.96L161.851 319.725L271.671 168.765L269.245 167ZM159.425 317.96L160.264 315.08L133.404 307.26L132.565 310.14L131.726 313.02L158.586 320.84L159.425 317.96ZM132.565 310.14V313.14H319.905V310.14V307.14H132.565V310.14ZM319.905 310.14H316.905V355.02H319.905H322.905V310.14H319.905ZM319.905 355.02V352.02H99.2451V355.02V358.02H319.905V355.02ZM227.425 405H230.425V355.02H227.425H224.425V405H227.425ZM227.425 355.02L230.423 355.134L232.123 310.254L229.125 310.14L226.127 310.026L224.427 354.906L227.425 355.02ZM229.125 310.14H232.125V265.6H229.125H226.125V310.14H229.125ZM229.125 265.6V268.6H281.145V265.6V262.6H229.125V265.6ZM281.145 265.6H278.145V405H281.145H284.145V265.6H281.145ZM281.145 405V402H227.425V405V408H281.145V405ZM386.019 394.8L384.416 397.336L384.429 397.344L384.443 397.352L386.019 394.8ZM349.639 352.64L346.936 353.941L349.639 352.64ZM349.639 219.36L352.342 220.661V220.661L349.639 219.36ZM386.019 177.54L387.596 180.092L387.609 180.084L387.623 180.076L386.019 177.54ZM490.739 177.54L489.119 180.065L489.141 180.079L489.163 180.092L490.739 177.54ZM527.119 219.36L524.416 220.661V220.661L527.119 219.36ZM527.119 352.64L524.416 351.339V351.339L527.119 352.64ZM490.739 394.8L492.333 397.342L492.343 397.336L490.739 394.8ZM462.519 354.68L460.732 352.271L460.713 352.285L460.694 352.299L462.519 354.68ZM478.839 329.86L476.016 328.844L476.007 328.869L475.999 328.894L478.839 329.86ZM478.839 242.14L475.999 243.106L476.007 243.131L476.016 243.156L478.839 242.14ZM462.519 217.32L460.694 219.701L460.713 219.715L460.732 219.729L462.519 217.32ZM414.239 217.32L412.452 214.911L412.433 214.925L412.414 214.939L414.239 217.32ZM397.919 242.14L395.096 241.124L395.087 241.149L395.079 241.174L397.919 242.14ZM397.919 329.86L395.079 330.826L395.087 330.851L395.096 330.876L397.919 329.86ZM414.239 354.68L412.414 357.061L412.433 357.075L412.452 357.089L414.239 354.68ZM438.379 409.08V406.08C419.399 406.08 402.499 401.453 387.596 392.248L386.019 394.8L384.443 397.352C400.366 407.187 418.373 412.08 438.379 412.08V409.08ZM386.019 394.8L387.623 392.264C372.738 382.852 360.968 369.254 352.342 351.339L349.639 352.64L346.936 353.941C355.99 372.746 368.473 387.254 384.416 397.336L386.019 394.8ZM349.639 352.64L352.342 351.339C343.744 333.482 339.379 311.738 339.379 286H336.379H333.379C333.379 312.396 337.854 335.078 346.936 353.941L349.639 352.64ZM336.379 286H339.379C339.379 260.262 343.744 238.518 352.342 220.661L349.639 219.36L346.936 218.059C337.854 236.922 333.379 259.604 333.379 286H336.379ZM349.639 219.36L352.342 220.661C360.966 202.751 372.729 189.275 387.596 180.092L386.019 177.54L384.443 174.988C368.483 184.845 355.993 199.249 346.936 218.059L349.639 219.36ZM386.019 177.54L387.623 180.076C402.523 170.653 419.413 165.92 438.379 165.92V162.92V159.92C418.359 159.92 400.342 164.933 384.416 175.004L386.019 177.54ZM438.379 162.92V165.92C457.58 165.92 474.46 170.657 489.119 180.065L490.739 177.54L492.359 175.015C476.645 164.93 458.618 159.92 438.379 159.92V162.92ZM490.739 177.54L489.163 180.092C504.03 189.275 515.793 202.751 524.416 220.661L527.119 219.36L529.822 218.059C520.766 199.249 508.275 184.845 492.316 174.988L490.739 177.54ZM527.119 219.36L524.416 220.661C533.014 238.518 537.379 260.262 537.379 286H540.379H543.379C543.379 259.604 538.904 236.922 529.822 218.059L527.119 219.36ZM540.379 286H537.379C537.379 311.738 533.014 333.482 524.416 351.339L527.119 352.64L529.822 353.941C538.904 335.078 543.379 312.396 543.379 286H540.379ZM527.119 352.64L524.416 351.339C515.79 369.254 504.02 382.852 489.136 392.264L490.739 394.8L492.343 397.336C508.285 387.254 520.768 372.746 529.822 353.941L527.119 352.64ZM490.739 394.8L489.146 392.258C474.484 401.449 457.594 406.08 438.379 406.08V409.08V412.08C458.604 412.08 476.621 407.191 492.333 397.342L490.739 394.8ZM438.379 362.5V365.5C448.273 365.5 456.975 362.71 464.344 357.061L462.519 354.68L460.694 352.299C454.463 357.076 447.072 359.5 438.379 359.5V362.5ZM462.519 354.68L464.307 357.089C471.973 351.401 477.7 342.529 481.679 330.826L478.839 329.86L475.999 328.894C472.271 339.858 467.119 347.532 460.732 352.271L462.519 354.68ZM478.839 329.86L481.662 330.876C485.901 319.099 487.959 304.101 487.959 286H484.959H481.959C481.959 303.712 479.937 317.954 476.016 328.844L478.839 329.86ZM484.959 286H487.959C487.959 267.899 485.901 252.901 481.662 241.124L478.839 242.14L476.016 243.156C479.937 254.046 481.959 268.288 481.959 286H484.959ZM478.839 242.14L481.679 241.174C477.7 229.471 471.973 220.599 464.307 214.911L462.519 217.32L460.732 219.729C467.119 224.468 472.271 232.142 475.999 243.106L478.839 242.14ZM462.519 217.32L464.344 214.939C456.975 209.29 448.273 206.5 438.379 206.5V209.5V212.5C447.072 212.5 454.463 214.924 460.694 219.701L462.519 217.32ZM438.379 209.5V206.5C428.694 206.5 420.015 209.299 412.452 214.911L414.239 217.32L416.027 219.729C422.517 214.914 429.931 212.5 438.379 212.5V209.5ZM414.239 217.32L412.414 214.939C405.008 220.617 399.296 229.46 395.096 241.124L397.919 242.14L400.742 243.156C404.703 232.154 409.871 224.449 416.064 219.701L414.239 217.32ZM397.919 242.14L395.079 241.174C391.081 252.932 389.139 267.911 389.139 286H392.139H395.139C395.139 268.275 397.05 254.015 400.759 243.106L397.919 242.14ZM392.139 286H389.139C389.139 304.089 391.081 319.068 395.079 330.826L397.919 329.86L400.759 328.894C397.05 317.985 395.139 303.725 395.139 286H392.139ZM397.919 329.86L395.096 330.876C399.296 342.54 405.008 351.383 412.414 357.061L414.239 354.68L416.064 352.299C409.871 347.551 404.703 339.846 400.742 328.844L397.919 329.86ZM414.239 354.68L412.452 357.089C420.015 362.701 428.694 365.5 438.379 365.5V362.5V359.5C429.931 359.5 422.517 357.086 416.027 352.271L414.239 354.68ZM564.421 355.02H561.421V358.02H564.421V355.02ZM564.421 317.96L562.013 316.17L561.421 316.967V317.96H564.421ZM676.621 167V164H675.113L674.213 165.21L676.621 167ZM734.421 167L736.847 168.765L740.313 164H734.421V167ZM624.601 317.96L623.762 320.84L625.787 321.43L627.027 319.725L624.601 317.96ZM597.741 310.14V307.14L596.902 313.02L597.741 310.14ZM785.081 310.14H788.081V307.14H785.081V310.14ZM785.081 355.02V358.02H788.081V355.02H785.081ZM692.601 405H689.601V408H692.601V405ZM692.601 355.02L689.603 354.906L689.601 354.963V355.02H692.601ZM694.301 310.14L697.299 310.254L697.301 310.197V310.14H694.301ZM694.301 265.6V262.6H691.301V265.6H694.301ZM746.321 265.6H749.321V262.6H746.321V265.6ZM746.321 405V408H749.321V405H746.321ZM564.421 355.02H567.421V317.96H564.421H561.421V355.02H564.421ZM564.421 317.96L566.829 319.75L679.029 168.79L676.621 167L674.213 165.21L562.013 316.17L564.421 317.96ZM676.621 167V170H734.421V167V164H676.621V167ZM734.421 167L731.995 165.235L622.175 316.195L624.601 317.96L627.027 319.725L736.847 168.765L734.421 167ZM624.601 317.96L625.439 315.08L598.579 307.26L597.741 310.14L596.902 313.02L623.762 320.84L624.601 317.96ZM597.741 310.14V313.14H785.081V310.14V307.14H597.741V310.14ZM785.081 310.14H782.081V355.02H785.081H788.081V310.14H785.081ZM785.081 355.02V352.02H564.421V355.02V358.02H785.081V355.02ZM692.601 405H695.601V355.02H692.601H689.601V405H692.601ZM692.601 355.02L695.599 355.134L697.299 310.254L694.301 310.14L691.303 310.026L689.603 354.906L692.601 355.02ZM694.301 310.14H697.301V265.6H694.301H691.301V310.14H694.301ZM694.301 265.6V268.6H746.321V265.6V262.6H694.301V265.6ZM746.321 265.6H743.321V405H746.321H749.321V265.6H746.321ZM746.321 405V402H692.601V405V408H746.321V405Z" fill="#1C9DAB" mask="url(#path-2-outside-1_1_3334)"/>
</g>
<path d="M86.2451 342.02V304.96L198.445 154H256.245L146.425 304.96L119.565 297.14H306.905V342.02H86.2451ZM214.425 392V342.02L216.125 297.14V252.6H268.145V392H214.425ZM425.379 396.08C405.886 396.08 388.432 391.32 373.019 381.8C357.606 372.053 345.479 358 336.639 339.64C327.799 321.28 323.379 299.067 323.379 273C323.379 246.933 327.799 224.72 336.639 206.36C345.479 188 357.606 174.06 373.019 164.54C388.432 154.793 405.886 149.92 425.379 149.92C445.099 149.92 462.552 154.793 477.739 164.54C493.152 174.06 505.279 188 514.119 206.36C522.959 224.72 527.379 246.933 527.379 273C527.379 299.067 522.959 321.28 514.119 339.64C505.279 358 493.152 372.053 477.739 381.8C462.552 391.32 445.099 396.08 425.379 396.08ZM425.379 349.5C434.672 349.5 442.719 346.893 449.519 341.68C456.546 336.467 461.986 328.193 465.839 316.86C469.919 305.527 471.959 290.907 471.959 273C471.959 255.093 469.919 240.473 465.839 229.14C461.986 217.807 456.546 209.533 449.519 204.32C442.719 199.107 434.672 196.5 425.379 196.5C416.312 196.5 408.266 199.107 401.239 204.32C394.439 209.533 388.999 217.807 384.919 229.14C381.066 240.473 379.139 255.093 379.139 273C379.139 290.907 381.066 305.527 384.919 316.86C388.999 328.193 394.439 336.467 401.239 341.68C408.266 346.893 416.312 349.5 425.379 349.5ZM551.421 342.02V304.96L663.621 154H721.421L611.601 304.96L584.741 297.14H772.081V342.02H551.421ZM679.601 392V342.02L681.301 297.14V252.6H733.321V392H679.601Z" fill="#1BA2B1"/>
<g clip-path="url(#clip0_1_3334)">
<rect x="165.384" y="532.019" width="149" height="3" rx="1" transform="rotate(-60 165.384 532.019)" fill="#1BA2B1"/>
<rect x="152" y="606.038" width="149" height="3" rx="1" transform="rotate(-60 152 606.038)" fill="#1BA2B1"/>
<rect x="573" y="606.038" width="149" height="3" rx="1" transform="rotate(-60 573 606.038)" fill="#1BA2B1"/>
<rect x="474" y="540.038" width="149" height="3" rx="1" transform="rotate(-60 474 540.038)" fill="#1BA2B1"/>
<rect x="342" y="465.751" width="80.5417" height="3" rx="1" transform="rotate(-60 342 465.751)" fill="#1BA2B1"/>
<rect x="113" y="465.751" width="42.6874" height="3" rx="1" transform="rotate(-60 113 465.751)" fill="#1BA2B1"/>
<rect x="728" y="465.751" width="42.6874" height="3" rx="1" transform="rotate(-60 728 465.751)" fill="#1BA2B1"/>
<rect x="604" y="494.968" width="42.6874" height="3" rx="1" transform="rotate(-60 604 494.968)" fill="#1BA2B1"/>
</g>
<defs>
<clipPath id="clip0_1_3334">
<rect width="638.942" height="211.538" fill="currentColor" transform="translate(113 396)"/>
</clipPath>
</defs>
</svg>
