<svg width="770" height="551" viewBox="0 0 770 551" fill="none" xmlns="http://www.w3.org/2000/svg">
<g opacity="0.3">
<mask id="path-2-outside-1_1_3870" maskUnits="userSpaceOnUse" x="86.0234" y="144.365" width="629" height="230" fill="black">
<rect fill="white" x="86.0234" y="144.365" width="629" height="230"/>
<path d="M89.6382 322.049V288.448L191.366 151.578H243.772L144.201 288.448L119.848 281.358H289.703V322.049H89.6382ZM205.855 367.365V322.049L207.396 281.358V240.975H254.561V367.365H205.855ZM397.12 371.064C379.446 371.064 363.621 366.748 349.647 358.117C335.672 349.28 324.677 336.538 316.662 319.892C308.647 303.245 304.64 283.105 304.64 259.471C304.64 235.838 308.647 215.697 316.662 199.051C324.677 182.405 335.672 169.766 349.647 161.134C363.621 152.297 379.446 147.879 397.12 147.879C414.999 147.879 430.824 152.297 444.593 161.134C458.568 169.766 469.562 182.405 477.577 199.051C485.592 215.697 489.6 235.838 489.6 259.471C489.6 283.105 485.592 303.245 477.577 319.892C469.562 336.538 458.568 349.28 444.593 358.117C430.824 366.748 414.999 371.064 397.12 371.064ZM397.12 328.831C405.546 328.831 412.841 326.468 419.007 321.741C425.378 317.014 430.31 309.513 433.803 299.238C437.503 288.962 439.352 275.707 439.352 259.471C439.352 243.236 437.503 229.981 433.803 219.705C430.31 209.429 425.378 201.928 419.007 197.201C412.841 192.475 405.546 190.111 397.12 190.111C388.899 190.111 381.604 192.475 375.233 197.201C369.067 201.928 364.135 209.429 360.436 219.705C356.942 229.981 355.195 243.236 355.195 259.471C355.195 275.707 356.942 288.962 360.436 299.238C364.135 309.513 369.067 317.014 375.233 321.741C381.604 326.468 388.899 328.831 397.12 328.831ZM511.398 322.049V288.448L613.126 151.578H665.531L565.961 288.448L541.608 281.358H711.463V322.049H511.398ZM627.614 367.365V322.049L629.155 281.358V240.975H676.32V367.365H627.614Z"/>
</mask>
<path d="M89.6382 322.049H86.9182V324.769H89.6382V322.049ZM89.6382 288.448L87.4551 286.826L86.9182 287.548V288.448H89.6382ZM191.366 151.578V148.858H189.999L189.183 149.955L191.366 151.578ZM243.772 151.578L245.971 153.178L249.114 148.858H243.772V151.578ZM144.201 288.448L143.441 291.06L145.276 291.594L146.401 290.049L144.201 288.448ZM119.848 281.358V278.638L119.088 283.97L119.848 281.358ZM289.703 281.358H292.423V278.638H289.703V281.358ZM289.703 322.049V324.769H292.423V322.049H289.703ZM205.855 367.365H203.135V370.085H205.855V367.365ZM205.855 322.049L203.137 321.947L203.135 321.998V322.049H205.855ZM207.396 281.358L210.114 281.461L210.116 281.41V281.358H207.396ZM207.396 240.975V238.255H204.676V240.975H207.396ZM254.561 240.975H257.281V238.255H254.561V240.975ZM254.561 367.365V370.085H257.281V367.365H254.561ZM89.6382 322.049H92.3582V288.448H89.6382H86.9182V322.049H89.6382ZM89.6382 288.448L91.8213 290.071L193.549 153.201L191.366 151.578L189.183 149.955L87.4551 286.826L89.6382 288.448ZM191.366 151.578V154.298H243.772V151.578V148.858H191.366V151.578ZM243.772 151.578L241.572 149.978L142.002 286.848L144.201 288.448L146.401 290.049L245.971 153.178L243.772 151.578ZM144.201 288.448L144.962 285.837L120.609 278.747L119.848 281.358L119.088 283.97L143.441 291.06L144.201 288.448ZM119.848 281.358V284.078H289.703V281.358V278.638H119.848V281.358ZM289.703 281.358H286.983V322.049H289.703H292.423V281.358H289.703ZM289.703 322.049V319.329H89.6382V322.049V324.769H289.703V322.049ZM205.855 367.365H208.575V322.049H205.855H203.135V367.365H205.855ZM205.855 322.049L208.573 322.152L210.114 281.461L207.396 281.358L204.678 281.255L203.137 321.947L205.855 322.049ZM207.396 281.358H210.116V240.975H207.396H204.676V281.358H207.396ZM207.396 240.975V243.695H254.561V240.975V238.255H207.396V240.975ZM254.561 240.975H251.841V367.365H254.561H257.281V240.975H254.561ZM254.561 367.365V364.645H205.855V367.365V370.085H254.561V367.365ZM349.647 358.117L348.193 360.416L348.205 360.423L348.217 360.431L349.647 358.117ZM316.662 319.892L314.211 321.072L316.662 319.892ZM316.662 199.051L319.113 200.231V200.231L316.662 199.051ZM349.647 161.134L351.076 163.448L351.088 163.441L351.1 163.433L349.647 161.134ZM444.593 161.134L443.124 163.423L443.143 163.436L443.163 163.448L444.593 161.134ZM477.577 199.051L475.127 200.231V200.231L477.577 199.051ZM477.577 319.892L475.127 318.712V318.712L477.577 319.892ZM444.593 358.117L446.037 360.421L446.047 360.416L444.593 358.117ZM419.007 321.741L417.386 319.557L417.369 319.57L417.352 319.583L419.007 321.741ZM433.803 299.238L431.244 298.316L431.236 298.339L431.228 298.362L433.803 299.238ZM433.803 219.705L431.228 220.581L431.236 220.603L431.244 220.626L433.803 219.705ZM419.007 197.201L417.352 199.36L417.369 199.373L417.386 199.386L419.007 197.201ZM375.233 197.201L373.612 195.017L373.595 195.03L373.578 195.043L375.233 197.201ZM360.436 219.705L357.877 218.784L357.869 218.806L357.861 218.829L360.436 219.705ZM360.436 299.238L357.861 300.113L357.869 300.136L357.877 300.159L360.436 299.238ZM375.233 321.741L373.578 323.9L373.595 323.913L373.612 323.926L375.233 321.741ZM397.12 371.064V368.344C379.911 368.344 364.589 364.148 351.076 355.803L349.647 358.117L348.217 360.431C362.654 369.348 378.981 373.784 397.12 373.784V371.064ZM349.647 358.117L351.1 355.818C337.605 347.284 326.934 334.955 319.113 318.712L316.662 319.892L314.211 321.072C322.421 338.121 333.738 351.275 348.193 360.416L349.647 358.117ZM316.662 319.892L319.113 318.712C311.318 302.521 307.36 282.807 307.36 259.471H304.64H301.92C301.92 283.403 305.977 303.969 314.211 321.072L316.662 319.892ZM304.64 259.471H307.36C307.36 236.136 311.318 216.421 319.113 200.231L316.662 199.051L314.211 197.871C305.977 214.974 301.92 235.539 301.92 259.471H304.64ZM316.662 199.051L319.113 200.231C326.932 183.992 337.597 171.774 351.076 163.448L349.647 161.134L348.217 158.82C333.747 167.758 322.423 180.817 314.211 197.871L316.662 199.051ZM349.647 161.134L351.1 163.433C364.61 154.89 379.923 150.599 397.12 150.599V147.879V145.159C378.968 145.159 362.633 149.704 348.193 158.835L349.647 161.134ZM397.12 147.879V150.599C414.529 150.599 429.833 154.894 443.124 163.423L444.593 161.134L446.062 158.845C431.814 149.701 415.47 145.159 397.12 145.159V147.879ZM444.593 161.134L443.163 163.448C456.643 171.774 467.308 183.992 475.127 200.231L477.577 199.051L480.028 197.871C471.817 180.817 460.492 167.758 446.022 158.82L444.593 161.134ZM477.577 199.051L475.127 200.231C482.922 216.421 486.88 236.136 486.88 259.471H489.6H492.32C492.32 235.539 488.263 214.974 480.028 197.871L477.577 199.051ZM489.6 259.471H486.88C486.88 282.807 482.922 302.521 475.127 318.712L477.577 319.892L480.028 321.072C488.263 303.969 492.32 283.403 492.32 259.471H489.6ZM477.577 319.892L475.127 318.712C467.306 334.955 456.634 347.284 443.139 355.818L444.593 358.117L446.047 360.416C460.501 351.275 471.819 338.121 480.028 321.072L477.577 319.892ZM444.593 358.117L443.148 355.812C429.855 364.145 414.541 368.344 397.12 368.344V371.064V373.784C415.457 373.784 431.792 369.351 446.037 360.421L444.593 358.117ZM397.12 328.831V331.551C406.09 331.551 413.98 329.022 420.662 323.9L419.007 321.741L417.352 319.583C411.702 323.914 405.001 326.111 397.12 326.111V328.831ZM419.007 321.741L420.627 323.926C427.578 318.769 432.771 310.724 436.379 300.113L433.803 299.238L431.228 298.362C427.849 308.302 423.177 315.26 417.386 319.557L419.007 321.741ZM433.803 299.238L436.363 300.159C440.207 289.481 442.072 275.883 442.072 259.471H439.352H436.632C436.632 275.531 434.799 288.443 431.244 298.316L433.803 299.238ZM439.352 259.471H442.072C442.072 243.06 440.207 229.461 436.363 218.784L433.803 219.705L431.244 220.626C434.799 230.5 436.632 243.412 436.632 259.471H439.352ZM433.803 219.705L436.379 218.829C432.771 208.218 427.578 200.174 420.627 195.017L419.007 197.201L417.386 199.386C423.177 203.682 427.849 210.64 431.228 220.581L433.803 219.705ZM419.007 197.201L420.662 195.043C413.98 189.921 406.09 187.391 397.12 187.391V190.111V192.831C405.001 192.831 411.702 195.029 417.352 199.36L419.007 197.201ZM397.12 190.111V187.391C388.338 187.391 380.47 189.929 373.612 195.017L375.233 197.201L376.854 199.386C382.738 195.02 389.46 192.831 397.12 192.831V190.111ZM375.233 197.201L373.578 195.043C366.863 200.191 361.684 208.208 357.877 218.784L360.436 219.705L362.995 220.626C366.586 210.651 371.272 203.665 376.888 199.36L375.233 197.201ZM360.436 219.705L357.861 218.829C354.236 229.49 352.475 243.071 352.475 259.471H355.195H357.915C357.915 243.401 359.648 230.471 363.011 220.581L360.436 219.705ZM355.195 259.471H352.475C352.475 275.872 354.236 289.453 357.861 300.113L360.436 299.238L363.011 298.362C359.648 288.472 357.915 275.542 357.915 259.471H355.195ZM360.436 299.238L357.877 300.159C361.684 310.734 366.863 318.752 373.578 323.9L375.233 321.741L376.888 319.583C371.272 315.277 366.586 308.292 362.995 298.316L360.436 299.238ZM375.233 321.741L373.612 323.926C380.47 329.013 388.338 331.551 397.12 331.551V328.831V326.111C389.46 326.111 382.738 323.922 376.854 319.557L375.233 321.741ZM511.398 322.049H508.678V324.769H511.398V322.049ZM511.398 288.448L509.214 286.826L508.678 287.548V288.448H511.398ZM613.126 151.578V148.858H611.758L610.943 149.955L613.126 151.578ZM665.531 151.578L667.73 153.178L670.873 148.858H665.531V151.578ZM565.961 288.448L565.2 291.06L567.036 291.594L568.16 290.049L565.961 288.448ZM541.608 281.358V278.638L540.847 283.97L541.608 281.358ZM711.463 281.358H714.183V278.638H711.463V281.358ZM711.463 322.049V324.769H714.183V322.049H711.463ZM627.614 367.365H624.894V370.085H627.614V367.365ZM627.614 322.049L624.896 321.947L624.894 321.998V322.049H627.614ZM629.155 281.358L631.873 281.461L631.875 281.41V281.358H629.155ZM629.155 240.975V238.255H626.435V240.975H629.155ZM676.32 240.975H679.04V238.255H676.32V240.975ZM676.32 367.365V370.085H679.04V367.365H676.32ZM511.398 322.049H514.118V288.448H511.398H508.678V322.049H511.398ZM511.398 288.448L513.581 290.071L615.309 153.201L613.126 151.578L610.943 149.955L509.214 286.826L511.398 288.448ZM613.126 151.578V154.298H665.531V151.578V148.858H613.126V151.578ZM665.531 151.578L663.331 149.978L563.761 286.848L565.961 288.448L568.16 290.049L667.73 153.178L665.531 151.578ZM565.961 288.448L566.721 285.837L542.368 278.747L541.608 281.358L540.847 283.97L565.2 291.06L565.961 288.448ZM541.608 281.358V284.078H711.463V281.358V278.638H541.608V281.358ZM711.463 281.358H708.743V322.049H711.463H714.183V281.358H711.463ZM711.463 322.049V319.329H511.398V322.049V324.769H711.463V322.049ZM627.614 367.365H630.334V322.049H627.614H624.894V367.365H627.614ZM627.614 322.049L630.332 322.152L631.873 281.461L629.155 281.358L626.437 281.255L624.896 321.947L627.614 322.049ZM629.155 281.358H631.875V240.975H629.155H626.435V281.358H629.155ZM629.155 240.975V243.695H676.32V240.975V238.255H629.155V240.975ZM676.32 240.975H673.6V367.365H676.32H679.04V240.975H676.32ZM676.32 367.365V364.645H627.614V367.365V370.085H676.32V367.365Z" fill="#1C9DAB" mask="url(#path-2-outside-1_1_3870)"/>
</g>
<path d="M77.8618 310.273V276.672L179.59 139.802H231.995L132.425 276.672L108.072 269.582H277.927V310.273H77.8618ZM194.078 355.588V310.273L195.62 269.582V229.199H242.784V355.588H194.078ZM385.343 359.287C367.669 359.287 351.845 354.972 337.87 346.34C323.896 337.503 312.901 324.762 304.886 308.115C296.871 291.469 292.863 271.329 292.863 247.695C292.863 224.061 296.871 203.921 304.886 187.275C312.901 170.628 323.896 157.989 337.87 149.358C351.845 140.521 367.669 136.102 385.343 136.102C403.223 136.102 419.047 140.521 432.816 149.358C446.791 157.989 457.786 170.628 465.801 187.275C473.816 203.921 477.823 224.061 477.823 247.695C477.823 271.329 473.816 291.469 465.801 308.115C457.786 324.762 446.791 337.503 432.816 346.34C419.047 354.972 403.223 359.287 385.343 359.287ZM385.343 317.055C393.769 317.055 401.065 314.692 407.23 309.965C413.601 305.238 418.533 297.737 422.027 287.461C425.726 277.186 427.576 263.93 427.576 247.695C427.576 231.46 425.726 218.204 422.027 207.929C418.533 197.653 413.601 190.152 407.23 185.425C401.065 180.698 393.769 178.335 385.343 178.335C377.123 178.335 369.827 180.698 363.456 185.425C357.291 190.152 352.359 197.653 348.66 207.929C345.166 218.204 343.419 231.46 343.419 247.695C343.419 263.93 345.166 277.186 348.66 287.461C352.359 297.737 357.291 305.238 363.456 309.965C369.827 314.692 377.123 317.055 385.343 317.055ZM499.621 310.273V276.672L601.349 139.802H653.754L554.184 276.672L529.831 269.582H699.686V310.273H499.621ZM615.838 355.588V310.273L617.379 269.582V229.199H664.544V355.588H615.838Z" fill="#1BA2B1"/>
<g clip-path="url(#clip0_1_3870)">
<rect x="149.817" y="481.947" width="134.976" height="2.71765" rx="0.906667" transform="rotate(-60 149.817 481.947)" fill="#1BA2B1"/>
<rect x="137.693" y="548.999" width="134.976" height="2.71765" rx="0.906667" transform="rotate(-60 137.693 548.999)" fill="#1BA2B1"/>
<rect x="519.07" y="548.999" width="134.976" height="2.71765" rx="0.906667" transform="rotate(-60 519.07 548.999)" fill="#1BA2B1"/>
<rect x="429.388" y="489.211" width="134.976" height="2.71765" rx="0.906667" transform="rotate(-60 429.388 489.211)" fill="#1BA2B1"/>
<rect x="309.812" y="421.916" width="72.9613" height="2.71765" rx="0.906667" transform="rotate(-60 309.812 421.916)" fill="#1BA2B1"/>
<rect x="102.364" y="421.916" width="38.6697" height="2.71765" rx="0.906667" transform="rotate(-60 102.364 421.916)" fill="#1BA2B1"/>
<rect x="659.482" y="421.916" width="38.6697" height="2.71765" rx="0.906667" transform="rotate(-60 659.482 421.916)" fill="#1BA2B1"/>
<rect x="547.152" y="448.383" width="38.6697" height="2.71765" rx="0.906667" transform="rotate(-60 547.152 448.383)" fill="#1BA2B1"/>
</g>
<defs>
<clipPath id="clip0_1_3870">
<rect width="578.806" height="191.628" fill="white" transform="translate(102.364 358.729)"/>
</clipPath>
</defs>
</svg>
