<svg width="554" height="396" viewBox="0 0 554 396" fill="none" xmlns="http://www.w3.org/2000/svg">
<g opacity="0.4">
<mask id="path-2-outside-1_1_4482" maskUnits="userSpaceOnUse" x="61.6865" y="104.649" width="453" height="165" fill="black">
<rect fill="white" x="61.6865" y="104.649" width="453" height="165"/>
<path d="M64.4925 232.046V207.871L137.684 109.395H175.388L103.75 207.871L86.2281 202.769H208.435V232.046H64.4925ZM148.108 264.649V232.046L149.217 202.769V173.715H183.151V264.649H148.108ZM285.719 267.311C273.003 267.311 261.618 264.206 251.564 257.996C241.509 251.638 233.598 242.47 227.832 230.493C222.065 218.517 219.182 204.026 219.182 187.022C219.182 170.018 222.065 155.528 227.832 143.551C233.598 131.574 241.509 122.481 251.564 116.271C261.618 109.913 273.003 106.734 285.719 106.734C298.583 106.734 309.969 109.913 319.875 116.271C329.93 122.481 337.841 131.574 343.607 143.551C349.374 155.528 352.257 170.018 352.257 187.022C352.257 204.026 349.374 218.517 343.607 230.493C337.841 242.47 329.93 251.638 319.875 257.996C309.969 264.206 298.583 267.311 285.719 267.311ZM285.719 236.925C291.782 236.925 297.031 235.225 301.467 231.824C306.05 228.423 309.599 223.026 312.113 215.633C314.774 208.24 316.105 198.703 316.105 187.022C316.105 175.341 314.774 165.804 312.113 158.411C309.599 151.018 306.05 145.621 301.467 142.22C297.031 138.819 291.782 137.119 285.719 137.119C279.805 137.119 274.556 138.819 269.972 142.22C265.536 145.621 261.988 151.018 259.326 158.411C256.813 165.804 255.556 175.341 255.556 187.022C255.556 198.703 256.813 208.24 259.326 215.633C261.988 223.026 265.536 228.423 269.972 231.824C274.556 235.225 279.805 236.925 285.719 236.925ZM367.94 232.046V207.871L441.131 109.395H478.836L407.197 207.871L389.676 202.769H511.883V232.046H367.94ZM451.556 264.649V232.046L452.665 202.769V173.715H486.599V264.649H451.556Z"/>
</mask>
<path d="M64.4925 232.046H62.5355V234.003H64.4925V232.046ZM64.4925 207.871L62.9218 206.703L62.5355 207.223V207.871H64.4925ZM137.684 109.395V107.438H136.7L136.113 108.228L137.684 109.395ZM175.388 109.395L176.971 110.546L179.232 107.438H175.388V109.395ZM103.75 207.871L103.203 209.75L104.523 210.134L105.332 209.022L103.75 207.871ZM86.2281 202.769V200.812L85.681 204.648L86.2281 202.769ZM208.435 202.769H210.392V200.812H208.435V202.769ZM208.435 232.046V234.003H210.392V232.046H208.435ZM148.108 264.649H146.151V266.606H148.108V264.649ZM148.108 232.046L146.152 231.972L146.151 232.009V232.046H148.108ZM149.217 202.769L151.173 202.844L151.174 202.807V202.769H149.217ZM149.217 173.715V171.758H147.26V173.715H149.217ZM183.151 173.715H185.108V171.758H183.151V173.715ZM183.151 264.649V266.606H185.108V264.649H183.151ZM64.4925 232.046H66.4495V207.871H64.4925H62.5355V232.046H64.4925ZM64.4925 207.871L66.0632 209.038L139.254 110.562L137.684 109.395L136.113 108.228L62.9218 206.703L64.4925 207.871ZM137.684 109.395V111.352H175.388V109.395V107.438H137.684V109.395ZM175.388 109.395L173.806 108.244L102.167 206.719L103.75 207.871L105.332 209.022L176.971 110.546L175.388 109.395ZM103.75 207.871L104.297 205.992L86.7751 200.891L86.2281 202.769L85.681 204.648L103.203 209.75L103.75 207.871ZM86.2281 202.769V204.726H208.435V202.769V200.812H86.2281V202.769ZM208.435 202.769H206.478V232.046H208.435H210.392V202.769H208.435ZM208.435 232.046V230.089H64.4925V232.046V234.003H208.435V232.046ZM148.108 264.649H150.065V232.046H148.108H146.151V264.649H148.108ZM148.108 232.046L150.064 232.12L151.173 202.844L149.217 202.769L147.261 202.695L146.152 231.972L148.108 232.046ZM149.217 202.769H151.174V173.715H149.217H147.26V202.769H149.217ZM149.217 173.715V175.672H183.151V173.715V171.758H149.217V173.715ZM183.151 173.715H181.194V264.649H183.151H185.108V173.715H183.151ZM183.151 264.649V262.692H148.108V264.649V266.606H183.151V264.649ZM251.564 257.996L250.518 259.65L250.526 259.655L250.535 259.661L251.564 257.996ZM227.832 230.493L226.069 231.342L227.832 230.493ZM227.832 143.551L229.595 144.4V144.4L227.832 143.551ZM251.564 116.271L252.592 117.936L252.601 117.93L252.609 117.925L251.564 116.271ZM319.875 116.271L318.818 117.918L318.833 117.927L318.847 117.936L319.875 116.271ZM343.607 143.551L341.844 144.4V144.4L343.607 143.551ZM343.607 230.493L341.844 229.645V229.645L343.607 230.493ZM319.875 257.996L320.915 259.654L320.921 259.65L319.875 257.996ZM301.467 231.824L300.301 230.253L300.288 230.262L300.276 230.271L301.467 231.824ZM312.113 215.633L310.271 214.971L310.265 214.987L310.26 215.003L312.113 215.633ZM312.113 158.411L310.26 159.041L310.265 159.058L310.271 159.074L312.113 158.411ZM301.467 142.22L300.276 143.773L300.288 143.783L300.301 143.792L301.467 142.22ZM269.972 142.22L268.806 140.649L268.794 140.658L268.782 140.667L269.972 142.22ZM259.326 158.411L257.485 157.748L257.479 157.765L257.473 157.781L259.326 158.411ZM259.326 215.633L257.473 216.263L257.479 216.28L257.485 216.296L259.326 215.633ZM269.972 231.824L268.782 233.377L268.794 233.387L268.806 233.396L269.972 231.824ZM285.719 267.311V265.354C273.338 265.354 262.314 262.335 252.592 256.331L251.564 257.996L250.535 259.661C260.922 266.076 272.669 269.268 285.719 269.268V267.311ZM251.564 257.996L252.609 256.342C242.9 250.202 235.222 241.331 229.595 229.645L227.832 230.493L226.069 231.342C231.975 243.609 240.118 253.073 250.518 259.65L251.564 257.996ZM227.832 230.493L229.595 229.645C223.986 217.996 221.139 203.812 221.139 187.022H219.182H217.225C217.225 204.241 220.144 219.038 226.069 231.342L227.832 230.493ZM219.182 187.022H221.139C221.139 170.233 223.986 156.049 229.595 144.4L227.832 143.551L226.069 142.702C220.144 155.007 217.225 169.804 217.225 187.022H219.182ZM227.832 143.551L229.595 144.4C235.22 132.717 242.894 123.926 252.592 117.936L251.564 116.271L250.535 114.606C240.124 121.036 231.976 130.432 226.069 142.702L227.832 143.551ZM251.564 116.271L252.609 117.925C262.329 111.778 273.347 108.691 285.719 108.691V106.734V104.777C272.66 104.777 260.907 108.047 250.518 114.617L251.564 116.271ZM285.719 106.734V108.691C298.245 108.691 309.256 111.781 318.818 117.918L319.875 116.271L320.932 114.624C310.681 108.045 298.922 104.777 285.719 104.777V106.734ZM319.875 116.271L318.847 117.936C328.545 123.926 336.219 132.717 341.844 144.4L343.607 143.551L345.37 142.702C339.463 130.432 331.315 121.036 320.904 114.606L319.875 116.271ZM343.607 143.551L341.844 144.4C347.452 156.049 350.3 170.233 350.3 187.022H352.257H354.214C354.214 169.804 351.295 155.007 345.37 142.702L343.607 143.551ZM352.257 187.022H350.3C350.3 203.812 347.452 217.996 341.844 229.645L343.607 230.493L345.37 231.342C351.295 219.038 354.214 204.241 354.214 187.022H352.257ZM343.607 230.493L341.844 229.645C336.217 241.331 328.539 250.202 318.829 256.342L319.875 257.996L320.921 259.65C331.321 253.073 339.464 243.609 345.37 231.342L343.607 230.493ZM319.875 257.996L318.836 256.338C309.272 262.333 298.254 265.354 285.719 265.354V267.311V269.268C298.913 269.268 310.666 266.079 320.915 259.654L319.875 257.996ZM285.719 236.925V238.882C292.174 238.882 297.85 237.063 302.657 233.377L301.467 231.824L300.276 230.271C296.211 233.387 291.39 234.968 285.719 234.968V236.925ZM301.467 231.824L302.633 233.396C307.634 229.685 311.37 223.898 313.966 216.263L312.113 215.633L310.26 215.003C307.828 222.155 304.467 227.161 300.301 230.253L301.467 231.824ZM312.113 215.633L313.954 216.296C316.72 208.614 318.062 198.83 318.062 187.022H316.105H314.148C314.148 198.577 312.829 207.867 310.271 214.971L312.113 215.633ZM316.105 187.022H318.062C318.062 175.215 316.72 165.431 313.954 157.748L312.113 158.411L310.271 159.074C312.829 166.178 314.148 175.468 314.148 187.022H316.105ZM312.113 158.411L313.966 157.781C311.37 150.147 307.634 144.359 302.633 140.649L301.467 142.22L300.301 143.792C304.467 146.883 307.828 151.889 310.26 159.041L312.113 158.411ZM301.467 142.22L302.657 140.667C297.85 136.982 292.174 135.162 285.719 135.162V137.119V139.076C291.39 139.076 296.211 140.657 300.276 143.773L301.467 142.22ZM285.719 137.119V135.162C279.401 135.162 273.74 136.988 268.806 140.649L269.972 142.22L271.138 143.792C275.372 140.651 280.209 139.076 285.719 139.076V137.119ZM269.972 142.22L268.782 140.667C263.95 144.371 260.224 150.139 257.485 157.748L259.326 158.411L261.168 159.074C263.751 151.897 267.123 146.871 271.163 143.773L269.972 142.22ZM259.326 158.411L257.473 157.781C254.866 165.451 253.599 175.222 253.599 187.022H255.556H257.513C257.513 175.46 258.76 166.157 261.179 159.041L259.326 158.411ZM255.556 187.022H253.599C253.599 198.822 254.866 208.593 257.473 216.263L259.326 215.633L261.179 215.003C258.76 207.887 257.513 198.584 257.513 187.022H255.556ZM259.326 215.633L257.485 216.296C260.224 223.905 263.95 229.673 268.782 233.377L269.972 231.824L271.163 230.271C267.123 227.174 263.751 222.148 261.168 214.971L259.326 215.633ZM269.972 231.824L268.806 233.396C273.74 237.056 279.401 238.882 285.719 238.882V236.925V234.968C280.209 234.968 275.372 233.394 271.138 230.253L269.972 231.824ZM367.94 232.046H365.983V234.003H367.94V232.046ZM367.94 207.871L366.369 206.703L365.983 207.223V207.871H367.94ZM441.131 109.395V107.438H440.148L439.561 108.228L441.131 109.395ZM478.836 109.395L480.419 110.546L482.68 107.438H478.836V109.395ZM407.197 207.871L406.65 209.75L407.971 210.134L408.78 209.022L407.197 207.871ZM389.676 202.769V200.812L389.129 204.648L389.676 202.769ZM511.883 202.769H513.84V200.812H511.883V202.769ZM511.883 232.046V234.003H513.84V232.046H511.883ZM451.556 264.649H449.599V266.606H451.556V264.649ZM451.556 232.046L449.6 231.972L449.599 232.009V232.046H451.556ZM452.665 202.769L454.62 202.844L454.622 202.807V202.769H452.665ZM452.665 173.715V171.758H450.708V173.715H452.665ZM486.599 173.715H488.556V171.758H486.599V173.715ZM486.599 264.649V266.606H488.556V264.649H486.599ZM367.94 232.046H369.897V207.871H367.94H365.983V232.046H367.94ZM367.94 207.871L369.511 209.038L442.702 110.562L441.131 109.395L439.561 108.228L366.369 206.703L367.94 207.871ZM441.131 109.395V111.352H478.836V109.395V107.438H441.131V109.395ZM478.836 109.395L477.254 108.244L405.615 206.719L407.197 207.871L408.78 209.022L480.419 110.546L478.836 109.395ZM407.197 207.871L407.744 205.992L390.223 200.891L389.676 202.769L389.129 204.648L406.65 209.75L407.197 207.871ZM389.676 202.769V204.726H511.883V202.769V200.812H389.676V202.769ZM511.883 202.769H509.926V232.046H511.883H513.84V202.769H511.883ZM511.883 232.046V230.089H367.94V232.046V234.003H511.883V232.046ZM451.556 264.649H453.513V232.046H451.556H449.599V264.649H451.556ZM451.556 232.046L453.511 232.12L454.62 202.844L452.665 202.769L450.709 202.695L449.6 231.972L451.556 232.046ZM452.665 202.769H454.622V173.715H452.665H450.708V202.769H452.665ZM452.665 173.715V175.672H486.599V173.715V171.758H452.665V173.715ZM486.599 173.715H484.642V264.649H486.599H488.556V173.715H486.599ZM486.599 264.649V262.692H451.556V264.649V266.606H486.599V264.649Z" fill="#1C9DAB" mask="url(#path-2-outside-1_1_4482)"/>
</g>
<path d="M56.0198 223.573V199.398L129.211 100.922H166.916L95.277 199.398L77.7554 194.297H199.963V223.573H56.0198ZM139.635 256.176V223.573L140.744 194.297V165.242H174.678V256.176H139.635ZM277.247 258.838C264.531 258.838 253.145 255.733 243.091 249.523C233.036 243.165 225.126 233.997 219.359 222.021C213.593 210.044 210.709 195.553 210.709 178.549C210.709 161.545 213.593 147.055 219.359 135.078C225.126 123.101 233.036 114.008 243.091 107.798C253.145 101.44 264.531 98.2607 277.247 98.2607C290.111 98.2607 301.496 101.44 311.403 107.798C321.457 114.008 329.368 123.101 335.134 135.078C340.901 147.055 343.784 161.545 343.784 178.549C343.784 195.553 340.901 210.044 335.134 222.021C329.368 233.997 321.457 243.165 311.403 249.523C301.496 255.733 290.111 258.838 277.247 258.838ZM277.247 228.453C283.309 228.453 288.558 226.752 292.994 223.351C297.578 219.95 301.126 214.554 303.64 207.16C306.302 199.767 307.632 190.23 307.632 178.549C307.632 166.868 306.302 157.331 303.64 149.938C301.126 142.545 297.578 137.148 292.994 133.747C288.558 130.347 283.309 128.646 277.247 128.646C271.332 128.646 266.083 130.347 261.5 133.747C257.064 137.148 253.515 142.545 250.854 149.938C248.34 157.331 247.083 166.868 247.083 178.549C247.083 190.23 248.34 199.767 250.854 207.16C253.515 214.554 257.064 219.95 261.5 223.351C266.083 226.752 271.332 228.453 277.247 228.453ZM359.467 223.573V199.398L432.659 100.922H470.363L398.725 199.398L381.203 194.297H503.41V223.573H359.467ZM443.083 256.176V223.573L444.192 194.297V165.242H478.126V256.176H443.083Z" fill="#1BA2B1"/>
<g clip-path="url(#clip0_1_4482)">
<rect x="107.791" y="346.751" width="97.1129" height="1.95529" rx="0.652329" transform="rotate(-60 107.791 346.751)" fill="#1BA2B1"/>
<rect x="99.0684" y="394.994" width="97.1129" height="1.95529" rx="0.652329" transform="rotate(-60 99.0684 394.994)" fill="#1BA2B1"/>
<rect x="373.461" y="394.994" width="97.1129" height="1.95529" rx="0.652329" transform="rotate(-60 373.461 394.994)" fill="#1BA2B1"/>
<rect x="308.937" y="351.978" width="97.1129" height="1.95529" rx="0.652329" transform="rotate(-60 308.937 351.978)" fill="#1BA2B1"/>
<rect x="222.903" y="303.56" width="52.4942" height="1.95529" rx="0.652329" transform="rotate(-60 222.903 303.56)" fill="#1BA2B1"/>
<rect x="73.6494" y="303.56" width="27.8221" height="1.95529" rx="0.652329" transform="rotate(-60 73.6494 303.56)" fill="#1BA2B1"/>
<rect x="474.484" y="303.56" width="27.8221" height="1.95529" rx="0.652329" transform="rotate(-60 474.484 303.56)" fill="#1BA2B1"/>
<rect x="393.666" y="322.603" width="27.8221" height="1.95529" rx="0.652329" transform="rotate(-60 393.666 322.603)" fill="#1BA2B1"/>
</g>
<defs>
<clipPath id="clip0_1_4482">
<rect width="416.44" height="137.873" fill="white" transform="translate(73.6494 258.099)"/>
</clipPath>
</defs>
</svg>
