<svg width="180" height="24" viewBox="0 0 180 24" fill="none" xmlns="http://www.w3.org/2000/svg">
<g clip-path="url(#clip0_17_1132)">
<path fill-rule="evenodd" clip-rule="evenodd" d="M11.5754 0H3.48923C1.55077 0 0 1.49333 0 3.36V11.1467C0 13.0133 1.55077 14.5067 3.48923 14.5067H11.5754C13.5138 14.5067 15.0646 13.0133 15.0646 11.1467V3.36C15.0092 1.49333 13.4585 0 11.5754 0ZM12.1292 11.68H2.88V2.77333H12.1292V11.68ZM24.2585 13.0133V3.52C24.2585 2.29333 25.3108 1.28 26.5846 1.28H34.0615V3.41333H27.0277V5.86667H30.4062C31.8462 5.86667 32.9538 6.18667 33.7292 6.77333C34.5046 7.36 34.8923 8.21333 34.8923 9.33333C34.8923 10.5067 34.4492 11.4133 33.6185 12.0533C32.7877 12.6933 31.5692 13.0133 30.0185 13.0133H24.2585ZM27.0277 10.9867H29.8523C30.5723 10.9867 31.1262 10.8267 31.5138 10.56C31.9015 10.2933 32.0677 9.92 32.0677 9.38667C32.0677 8.37333 31.3477 7.84 29.8523 7.84H27.0277V10.9867ZM39.0462 10.8267V8.10667H44.6954V5.97333H39.0462V3.46667H45.4154V1.28H38.5477C37.2738 1.28 36.2215 2.29333 36.2215 3.52V10.7733C36.2215 12 37.2738 13.0133 38.5477 13.0133H45.6369V10.8267H39.0462ZM56.9354 1.28H52.1723C50.9538 1.28 49.9015 2.24 49.8461 3.41333L49.7354 6.02667C49.68 7.04 49.6246 7.89333 49.5138 8.58667C49.4031 9.28 49.1815 9.81333 48.96 10.1867C48.6831 10.56 48.3508 10.72 47.8523 10.72C47.6861 10.72 47.52 10.72 47.3538 10.6667L47.1877 12.96C47.4646 13.0133 47.6861 13.0667 47.9077 13.12C48.1292 13.1733 48.3508 13.1733 48.5723 13.1733C49.2923 13.1733 49.8462 13.0133 50.2892 12.6933C50.7323 12.3733 51.12 11.8933 51.3969 11.3067C51.6738 10.6667 51.84 9.92 52.0061 9.01333C52.1169 8.10667 52.2277 7.09333 52.2277 5.97333L52.2831 3.52H56.4369V13.0133H59.2062V3.52C59.2062 2.29333 58.2092 1.28 56.9354 1.28ZM71.0585 13.0133H73.9938L69.12 2.56C68.7877 1.81333 68.0123 1.33333 67.1815 1.33333C66.3508 1.33333 65.5754 1.81333 65.2431 2.56L60.3692 13.0133H63.2492L64.3569 10.5067H70.0061L71.0585 13.0133ZM65.2431 8.42667L67.1815 3.94667L69.12 8.42667H65.2431ZM80.0862 1.28C79.0338 1.28 78.0923 1.44 77.3169 1.81333C76.5415 2.18667 75.9323 2.66667 75.4892 3.30667C75.0461 3.94667 74.8246 4.74667 74.8246 5.65333C74.8246 6.56 75.0461 7.30667 75.4338 7.94667C75.8215 8.58667 76.4308 9.06667 77.1508 9.38667C77.2061 9.44 77.3169 9.44 77.3723 9.44L74.8246 12.96H77.8154L79.92 9.86667H82.5231V12.96H85.2923V1.28H80.0862ZM78.3138 4.05333C78.7569 3.68 79.3108 3.52 80.1415 3.52H82.5785V7.73333H80.0862C79.3108 7.73333 78.7015 7.57333 78.3138 7.2C77.9261 6.82667 77.7046 6.29333 77.7046 5.65333C77.7046 4.90667 77.9261 4.37333 78.3138 4.05333ZM102.517 1.28H91.9938V3.46667H95.8708V12.96H98.64V3.52H102.517V1.28ZM106.726 10.8267V8.10667H112.375V5.97333H106.726V3.46667H113.095V1.28H105.674C104.732 1.28 103.957 2.02667 103.957 2.93333V11.3067C103.957 12.2133 104.732 12.96 105.674 12.96H113.317V10.7733H106.726V10.8267ZM114.868 1.28H118.08L120.628 4.8L123.12 1.28H126.388L122.345 6.88L126.72 13.0133H123.397L120.572 9.12L117.803 13.0133H114.535L118.855 7.04L114.868 1.28ZM136.191 1.28V5.86667H130.708V1.28H127.883V12.96H130.708V8.16H136.191V12.96H139.015V1.28H136.191ZM141.009 13.0133V1.28H143.778V8.90667L149.594 1.28H152.252V12.96H149.483V5.38667L143.668 12.96H141.009V13.0133ZM162.111 13.0133H165.323L161.225 6.93333L165.212 1.28H162.222L159.009 6.02667H157.015V1.28H154.191V12.96H157.015V8.26667H158.954L162.111 13.0133ZM176.788 13.0133H179.723L174.849 2.56C174.517 1.81333 173.742 1.33333 172.911 1.33333C172.08 1.33333 171.305 1.81333 170.972 2.56L166.154 13.0133H169.034L170.142 10.5067H175.791L176.788 13.0133ZM170.972 8.42667L172.911 3.94667L174.849 8.42667H170.972ZM28.3569 23.8933V21.0667L26.9169 23.4133H26.5292L25.0892 21.12V23.8933H24.3138V19.6267H24.9785L26.7508 22.4533L28.4677 19.6267H29.1323V23.8933H28.3569ZM33.6738 23.8933H34.56L32.5662 19.6267H31.7354L29.7415 23.8933H30.5723L31.0154 22.9333H33.2308L33.6738 23.8933ZM31.2923 22.2933L32.1231 20.4267L32.9538 22.2933H31.2923ZM38.16 20.32H35.9446V23.9467H35.1138V19.68H38.16V20.32ZM41.5938 23.8933H42.48L40.4861 19.6267H39.6554L37.6615 23.8933H38.4923L38.9354 22.88H41.1508L41.5938 23.8933ZM39.2123 22.2933L40.0431 20.4267L40.8738 22.2933H39.2123ZM46.4123 22.72C46.4123 22.9333 46.3569 23.0933 46.2462 23.2533C46.1354 23.4133 45.9692 23.5733 45.8031 23.68C45.5815 23.7867 45.4154 23.8933 45.1385 23.8933C44.9169 23.9467 44.64 23.9467 44.3631 23.9467C44.0861 23.9467 43.8092 23.8933 43.5323 23.7867C43.2554 23.7333 43.0338 23.5733 42.7569 23.4667L43.0338 22.88C43.2 22.9867 43.4215 23.0933 43.6431 23.1467C43.8646 23.2 44.0861 23.2533 44.3077 23.2533C44.5292 23.2533 44.7508 23.2533 44.9169 23.2C45.0831 23.1467 45.2492 23.04 45.36 22.9333C45.4708 22.8267 45.5261 22.72 45.5261 22.56C45.5261 22.3467 45.4708 22.24 45.3046 22.1333C45.1385 22.0267 44.9169 21.9733 44.64 21.9733H43.5877V21.3333H44.5846C44.8615 21.3333 45.0277 21.28 45.1938 21.1733C45.3046 21.0667 45.4154 20.96 45.4154 20.7467C45.4154 20.64 45.36 20.48 45.3046 20.4267C45.1938 20.32 45.0831 20.2667 44.9169 20.2133C44.7508 20.2667 44.5292 20.2667 44.3631 20.2667C44.1969 20.2667 43.9754 20.2667 43.7538 20.32C43.5323 20.3733 43.3661 20.48 43.1446 20.5867L42.8677 19.9467C43.1446 19.7867 43.4215 19.68 43.7538 19.6267C44.0861 19.5733 44.3631 19.5733 44.64 19.5733C44.9169 19.5733 45.1938 19.68 45.4154 19.7867C45.6369 19.8933 45.8585 20 45.9692 20.16C46.08 20.32 46.1908 20.5333 46.1908 20.7467C46.1908 20.96 46.1354 21.12 46.0246 21.28C45.9138 21.44 45.7477 21.5467 45.5815 21.6533H45.5261C45.5815 21.6533 45.6369 21.7067 45.6923 21.7067C45.9138 21.8133 46.08 21.92 46.1908 22.08C46.3569 22.2933 46.4123 22.5067 46.4123 22.72ZM47.1323 23.8933V19.6267H47.9631V22.6667L50.3446 19.6267H51.12V23.8933H50.2892V20.8533L47.9077 23.8933H47.1323ZM56.0492 19.6267V23.8933H55.2185V22.08H52.8923V23.8933H52.0615V19.6267H52.8923V21.3867H55.2185V19.6267H56.0492ZM63.1385 23.8933V21.0667L61.6985 23.4133H61.3108L59.8708 21.12V23.8933H59.0954V19.6267H59.76L61.5323 22.4533L63.2492 19.6267H63.9138V23.8933H63.1385ZM67.0154 23.9467C66.6831 23.9467 66.3508 23.8933 66.0738 23.7867C65.7969 23.68 65.52 23.52 65.2985 23.3067C65.0769 23.0933 64.9108 22.88 64.8 22.6133C64.6892 22.3467 64.6338 22.08 64.6338 21.76C64.6338 21.44 64.6892 21.1733 64.8 20.9067C64.9108 20.64 65.0769 20.4267 65.2985 20.2133C65.52 20 65.7415 19.84 66.0738 19.7333C66.3508 19.6267 66.6831 19.5733 67.0154 19.5733C67.3477 19.5733 67.68 19.6267 67.9569 19.7333C68.2338 19.84 68.5108 20 68.7323 20.2133C68.9538 20.4267 69.12 20.64 69.2308 20.9067C69.3415 21.1733 69.3969 21.4933 69.3969 21.8133C69.3969 22.1333 69.3415 22.4 69.2308 22.6667C69.12 22.9333 68.9538 23.1467 68.7323 23.36C68.5108 23.5733 68.2892 23.7333 67.9569 23.84C67.68 23.8933 67.3477 23.9467 67.0154 23.9467ZM67.0154 23.2533C67.2369 23.2533 67.4585 23.2 67.6246 23.1467C67.7908 23.0933 67.9569 22.9867 68.1231 22.8267C68.2892 22.6667 68.3446 22.5067 68.4554 22.3467C68.5108 22.1867 68.5661 21.9733 68.5661 21.76C68.5661 21.5467 68.5108 21.3333 68.4554 21.1733C68.4 21.0133 68.2892 20.8533 68.1231 20.6933C67.9569 20.5333 67.7908 20.48 67.6246 20.3733C67.4585 20.32 67.2369 20.2667 67.0154 20.2667C66.7938 20.2667 66.5723 20.32 66.4062 20.3733C66.24 20.4267 66.0738 20.5333 65.9077 20.6933C65.7415 20.8533 65.6308 21.0133 65.5754 21.1733C65.52 21.3333 65.4646 21.5467 65.4646 21.76C65.4646 21.9733 65.52 22.1867 65.5754 22.3467C65.6308 22.5067 65.7415 22.6667 65.9077 22.8267C66.0738 22.9867 66.24 23.0933 66.4062 23.1467C66.5723 23.2533 66.7938 23.2533 67.0154 23.2533ZM70.1169 23.8933V19.6267H73.6061V20.2667H70.9477V21.3333H72.2769C72.8308 21.3333 73.2185 21.44 73.4954 21.6533C73.7723 21.8667 73.9385 22.1867 73.9385 22.56C73.9385 22.9867 73.7723 23.3067 73.4954 23.52C73.1631 23.7333 72.7754 23.8933 72.2215 23.8933H70.1169ZM72.1108 23.3067C72.4431 23.3067 72.6646 23.2533 72.8308 23.1467C72.9969 23.04 73.0523 22.88 73.0523 22.6133C73.0523 22.1867 72.72 21.9733 72.0554 21.9733H70.8923V23.3067H72.1108ZM74.6031 23.8933V19.6267H75.4338V22.6667L77.8154 19.6267H78.5908V23.8933H77.76V20.8533L75.3785 23.8933H74.6031ZM83.5754 23.8933H82.7446V20.2667H80.9723L80.9169 21.3333C80.9169 21.76 80.8615 22.1333 80.8061 22.4533C80.7508 22.7733 80.6954 23.04 80.5846 23.2533C80.4738 23.4667 80.3631 23.6267 80.1969 23.7333C80.0308 23.84 79.8646 23.8933 79.5877 23.8933C79.5323 23.8933 79.4215 23.8933 79.3661 23.8933C79.3108 23.8933 79.2 23.8933 79.1446 23.84L79.2 23.1467C79.2554 23.1467 79.3108 23.1467 79.3661 23.1467C79.5323 23.1467 79.6985 23.0933 79.8092 22.9333C79.92 22.7733 79.9754 22.6133 80.0308 22.2933C80.0861 22.0267 80.0861 21.7067 80.1415 21.28L80.1969 19.52H83.5754V23.8933ZM86.5661 21.0667C87.12 21.0667 87.5077 21.1733 87.7846 21.3867C88.0615 21.6 88.2277 21.9733 88.2277 22.4C88.2277 22.88 88.0615 23.2533 87.7292 23.4667C87.3969 23.7333 86.9538 23.84 86.4 23.84H84.4615V19.5733H85.2923V21.0133H86.5661V21.0667ZM86.4 23.3067C86.7323 23.3067 86.9538 23.2533 87.12 23.0933C87.2861 22.9333 87.3969 22.72 87.3969 22.4533C87.3969 22.1867 87.2861 21.9733 87.12 21.8667C86.9538 21.76 86.6769 21.7067 86.4 21.7067H85.3477V23.3067H86.4ZM92.8246 19.6267V23.8933H91.9938V22.08H89.7231V23.8933H88.8923V19.6267H89.7231V21.3867H92.0492V19.6267H92.8246ZM95.8708 21.0667C96.4246 21.0667 96.8123 21.1733 97.0892 21.3867C97.3661 21.6 97.5323 21.9733 97.5323 22.4C97.5323 22.88 97.3661 23.2533 97.0338 23.4667C96.7015 23.7333 96.2585 23.84 95.7046 23.84H93.7661V19.5733H94.5969V21.0133H95.8708V21.0667ZM95.7046 23.3067C96.0369 23.3067 96.2585 23.2533 96.4246 23.0933C96.5908 22.9333 96.7015 22.72 96.7015 22.4533C96.7015 22.1867 96.5908 21.9733 96.4246 21.8667C96.2585 21.76 95.9815 21.7067 95.7046 21.7067H94.6523V23.3067H95.7046ZM98.1969 23.8933V19.6267H99.0277V23.8933H98.1969ZM99.6923 19.6267H100.634L101.686 21.0667L102.738 19.6267H103.68L102.185 21.6533L103.791 23.8933H102.794L101.631 22.3467L100.468 23.8933H99.5261L101.132 21.7067L99.6923 19.6267ZM110.105 19.6267L108.166 23.0933C108 23.36 107.834 23.5733 107.612 23.7333C107.391 23.8933 107.169 23.9467 106.892 24C106.615 24 106.394 23.9467 106.117 23.84L106.338 23.2C106.56 23.2533 106.782 23.3067 106.948 23.2533C107.114 23.2 107.28 23.0933 107.391 22.88L107.446 22.7733L105.674 19.5733H106.56L107.889 22.08L109.218 19.5733H110.105V19.6267ZM112.542 23.9467C112.209 23.9467 111.877 23.8933 111.6 23.7867C111.323 23.68 111.046 23.52 110.825 23.3067C110.603 23.0933 110.437 22.88 110.326 22.6133C110.215 22.3467 110.16 22.08 110.16 21.7067C110.16 21.3867 110.215 21.0667 110.326 20.8C110.437 20.5333 110.603 20.32 110.825 20.1067C111.046 19.8933 111.268 19.7333 111.6 19.6267C111.877 19.52 112.209 19.4667 112.542 19.4667C112.929 19.4667 113.262 19.52 113.538 19.6267C113.815 19.7333 114.092 19.9467 114.314 20.16L113.76 20.64C113.594 20.48 113.428 20.3733 113.206 20.2667C112.985 20.16 112.818 20.16 112.542 20.16C112.32 20.16 112.098 20.2133 111.877 20.2667C111.711 20.32 111.489 20.4267 111.378 20.5867C111.212 20.7467 111.102 20.9067 111.046 21.0667C110.991 21.2267 110.935 21.44 110.935 21.6533C110.935 21.8667 110.991 22.08 111.046 22.24C111.102 22.4 111.212 22.56 111.378 22.72C111.545 22.88 111.711 22.9333 111.877 23.04C112.043 23.0933 112.265 23.1467 112.542 23.1467C112.763 23.1467 112.985 23.0933 113.206 23.04C113.428 22.9333 113.594 22.8267 113.76 22.6667L114.314 23.1467C114.092 23.36 113.871 23.5733 113.538 23.68C113.262 23.8933 112.929 23.9467 112.542 23.9467ZM118.357 20.32H116.862V23.9467H116.031V20.32H114.535V19.6267H118.302V20.32H118.357ZM122.511 20.32C122.345 20.1067 122.123 19.8933 121.846 19.7867C121.569 19.68 121.237 19.6267 120.849 19.6267H119.022V23.8933H119.852V22.6667H120.849C121.237 22.6667 121.569 22.6133 121.846 22.4533C122.123 22.3467 122.345 22.1333 122.511 21.92C122.677 21.7067 122.732 21.44 122.732 21.12C122.732 20.8533 122.677 20.5333 122.511 20.32ZM121.625 21.76C121.458 21.92 121.182 21.9733 120.794 21.9733H119.852V20.2667H120.794C121.182 20.2667 121.458 20.32 121.625 20.48C121.791 20.64 121.902 20.8533 121.902 21.12C121.902 21.44 121.846 21.6533 121.625 21.76ZM125.668 23.9467C125.335 23.9467 125.003 23.8933 124.726 23.7867C124.449 23.68 124.172 23.52 123.951 23.3067C123.729 23.0933 123.563 22.88 123.452 22.6133C123.342 22.3467 123.286 22.08 123.286 21.76C123.286 21.44 123.342 21.1733 123.452 20.9067C123.563 20.64 123.729 20.4267 123.951 20.2133C124.172 20 124.394 19.84 124.726 19.7333C125.003 19.6267 125.335 19.5733 125.668 19.5733C126 19.5733 126.332 19.6267 126.609 19.7333C126.886 19.84 127.163 20 127.385 20.2133C127.606 20.4267 127.772 20.64 127.883 20.9067C127.994 21.1733 128.049 21.4933 128.049 21.8133C128.049 22.1333 127.994 22.4 127.883 22.6667C127.772 22.9333 127.606 23.1467 127.385 23.36C127.163 23.5733 126.942 23.7333 126.609 23.84C126.332 23.8933 126 23.9467 125.668 23.9467ZM125.668 23.2533C125.889 23.2533 126.111 23.2 126.277 23.1467C126.443 23.0933 126.609 22.9867 126.775 22.8267C126.942 22.6667 126.997 22.5067 127.108 22.3467C127.163 22.1867 127.218 21.9733 127.218 21.76C127.218 21.5467 127.163 21.3333 127.108 21.1733C127.052 21.0133 126.942 20.8533 126.775 20.6933C126.609 20.5333 126.443 20.48 126.277 20.3733C126.111 20.32 125.889 20.2667 125.668 20.2667C125.446 20.2667 125.225 20.32 125.058 20.3733C124.892 20.4267 124.726 20.5333 124.56 20.6933C124.394 20.8533 124.283 21.0133 124.228 21.1733C124.172 21.3333 124.117 21.5467 124.117 21.76C124.117 21.9733 124.172 22.1867 124.228 22.3467C124.283 22.5067 124.394 22.6667 124.56 22.8267C124.726 22.9867 124.892 23.0933 125.058 23.1467C125.225 23.2533 125.446 23.2533 125.668 23.2533ZM128.769 23.8933V19.6267H129.6V22.6667L131.982 19.6267H132.757V23.8933H131.926V20.8533L129.545 23.8933H128.769ZM130.763 19.36C130.375 19.36 130.098 19.3067 129.877 19.1467C129.711 18.9867 129.6 18.7733 129.6 18.5067H130.154C130.154 18.6667 130.209 18.7733 130.32 18.88C130.431 18.9867 130.542 18.9867 130.763 18.9867C130.929 18.9867 131.095 18.9333 131.206 18.88C131.317 18.7733 131.372 18.6667 131.372 18.5067H131.926C131.926 18.7733 131.815 18.9867 131.649 19.1467C131.428 19.2533 131.151 19.36 130.763 19.36ZM135.858 23.9467C135.526 23.9467 135.194 23.8933 134.917 23.7867C134.64 23.68 134.363 23.52 134.142 23.3067C133.92 23.0933 133.754 22.88 133.643 22.6133C133.532 22.3467 133.477 22.08 133.477 21.7067C133.477 21.3867 133.532 21.0667 133.643 20.8C133.754 20.5333 133.92 20.32 134.142 20.1067C134.363 19.8933 134.585 19.7333 134.917 19.6267C135.194 19.52 135.526 19.4667 135.858 19.4667C136.246 19.4667 136.578 19.52 136.855 19.6267C137.132 19.7333 137.409 19.9467 137.631 20.16L137.077 20.64C136.911 20.48 136.745 20.3733 136.523 20.2667C136.302 20.16 136.135 20.16 135.858 20.16C135.637 20.16 135.415 20.2133 135.194 20.2667C135.028 20.32 134.806 20.4267 134.695 20.5867C134.529 20.7467 134.418 20.9067 134.363 21.0667C134.308 21.2267 134.252 21.44 134.252 21.6533C134.252 21.8667 134.308 22.08 134.363 22.24C134.418 22.4 134.529 22.56 134.695 22.72C134.862 22.88 135.028 22.9333 135.194 23.04C135.36 23.0933 135.582 23.1467 135.858 23.1467C136.08 23.1467 136.302 23.0933 136.523 23.04C136.745 22.9333 136.911 22.8267 137.077 22.6667L137.631 23.1467C137.409 23.36 137.188 23.5733 136.855 23.68C136.578 23.8933 136.246 23.9467 135.858 23.9467ZM141.674 20.32H140.178V23.9467H139.348V20.32H137.908V19.6267H141.674V20.32ZM145.772 21.8667C145.662 21.76 145.495 21.7067 145.274 21.6533C145.385 21.6 145.44 21.5467 145.551 21.4933C145.828 21.28 145.938 21.0133 145.938 20.6933C145.938 20.32 145.772 20.0533 145.495 19.8933C145.218 19.68 144.831 19.6267 144.332 19.6267H142.338V23.8933H144.443C144.997 23.8933 145.44 23.7867 145.717 23.5733C145.994 23.36 146.16 23.0933 146.16 22.72C146.16 22.3467 146.049 22.08 145.772 21.8667ZM143.169 20.2133H144.277C144.554 20.2133 144.72 20.2667 144.886 20.3733C145.052 20.48 145.108 20.64 145.108 20.8C145.108 21.0133 145.052 21.1733 144.886 21.2267C144.72 21.3333 144.554 21.3867 144.277 21.3867H143.169V20.2133ZM145.108 23.1467C144.942 23.2533 144.72 23.3067 144.443 23.3067H143.169V22.0267H144.443C144.72 22.0267 144.942 22.08 145.108 22.1867C145.274 22.2933 145.329 22.4533 145.329 22.6667C145.329 22.88 145.218 23.04 145.108 23.1467Z" fill="#010101"/>
</g>
<defs>
<clipPath id="clip0_17_1132">
<rect width="180" height="24" fill="currentColor"/>
</clipPath>
</defs>
</svg>
