<svg width="24" height="15" viewBox="0 0 24 15" fill="none" xmlns="http://www.w3.org/2000/svg">
<path d="M23.453 0.982344C23.2019 1.78454 22.8347 2.54562 22.363 3.24134L22.382 3.21134C21.934 3.95801 21.399 4.82068 20.777 5.79934C20.2437 6.57201 19.9613 6.97201 19.93 6.99934C19.7875 7.17783 19.6953 7.39121 19.663 7.61734L19.662 7.62434C19.6875 7.82809 19.7821 8.01694 19.93 8.15934L20.33 8.60534C22.47 10.8047 23.6737 12.3207 23.941 13.1533C23.9917 13.2901 24.008 13.4373 23.9885 13.5818C23.9689 13.7264 23.9142 13.8639 23.829 13.9823L23.831 13.9793C23.7303 14.0832 23.6076 14.1631 23.4719 14.2131C23.3362 14.2631 23.191 14.282 23.047 14.2683H23.051H20.415C20.078 14.2683 19.768 14.1503 19.525 13.9543L19.528 13.9563C19.1811 13.6719 18.8626 13.3544 18.577 13.0083L18.568 12.9963C18.1073 12.4757 17.6987 12.0373 17.342 11.6813C16.154 10.552 15.2773 9.98734 14.712 9.98734C14.5295 9.971 14.3471 10.0187 14.196 10.1223L14.199 10.1203C14.1341 10.2017 14.0864 10.2955 14.0589 10.3959C14.0314 10.4963 14.0246 10.6012 14.039 10.7043V10.7003C14.0001 11.1669 13.9874 11.6353 14.001 12.1033V12.0863V13.2453C14.0294 13.3838 14.0197 13.5273 13.9728 13.6607C13.926 13.794 13.8438 13.9121 13.735 14.0023L13.734 14.0033C13.2276 14.2321 12.6701 14.3242 12.117 14.2703L12.13 14.2713C10.6162 14.2454 9.13815 13.807 7.855 13.0033L7.89 13.0233C6.41039 12.1313 5.14216 10.9286 4.173 9.49834L4.146 9.45634C3.20524 8.20182 2.37829 6.86586 1.675 5.46434L1.605 5.31034C1.13636 4.40278 0.724567 3.46698 0.372 2.50834L0.312 2.32334C0.148535 1.82568 0.0444799 1.31044 0.002 0.788344L0 0.763344C0 0.258011 0.297333 0.00534395 0.892 0.00534395H3.522C3.78789 -0.0154808 4.05183 0.0648807 4.261 0.230344L4.259 0.228344C4.459 0.447344 4.607 0.716344 4.68 1.01634L4.683 1.02834C5.11749 2.27266 5.64809 3.4813 6.27 4.64334L6.203 4.50634C6.65249 5.41937 7.19646 6.28276 7.826 7.08234L7.803 7.05134C8.33633 7.70601 8.75233 8.03334 9.051 8.03334L9.083 8.03434C9.15331 8.03445 9.22241 8.01601 9.28333 7.9809C9.34425 7.94579 9.39484 7.89524 9.43 7.83434L9.431 7.83234C9.52674 7.5817 9.56468 7.31269 9.542 7.04534V7.05134V3.17234C9.52331 2.73254 9.41439 2.30128 9.222 1.90534L9.23 1.92434C9.11335 1.67271 8.96186 1.43875 8.78 1.22934L8.783 1.23334C8.61531 1.06593 8.50623 0.848808 8.472 0.614344L8.471 0.608344C8.471 0.438344 8.549 0.285344 8.671 0.185344L8.672 0.184344C8.79755 0.0693625 8.96176 0.00582063 9.132 0.00634388H13.286C13.3903 -0.00582556 13.4959 0.00808781 13.5935 0.0468355C13.6911 0.0855831 13.7775 0.147952 13.845 0.228344L13.846 0.229344C13.9723 0.462719 14.0276 0.727945 14.005 0.992344V0.987344V6.16034C13.9891 6.36437 14.0366 6.56834 14.141 6.74434L14.139 6.74034C14.1756 6.79508 14.2252 6.83995 14.2832 6.87099C14.3413 6.90204 14.4061 6.9183 14.472 6.91834C14.6407 6.90739 14.8043 6.85145 14.944 6.75634L14.941 6.75834C15.213 6.57134 15.447 6.35834 15.65 6.11734L15.654 6.11234C16.2718 5.41332 16.8257 4.6603 17.309 3.86234L17.348 3.79234C17.692 3.22234 18.064 2.52034 18.401 1.79934L18.463 1.65234L18.909 0.760344C18.9875 0.529709 19.139 0.330904 19.3405 0.193973C19.542 0.0570413 19.7827 -0.0105743 20.026 0.00134377H20.023H22.654C23.3647 0.00134377 23.6313 0.328344 23.454 0.982344H23.453Z" fill="#010101"/>
</svg>
